<?xml version="1.0" encoding="UTF-8" standalone="no"?>
<svg
   xmlns:dc="http://purl.org/dc/elements/1.1/"
   xmlns:cc="http://creativecommons.org/ns#"
   xmlns:rdf="http://www.w3.org/1999/02/22-rdf-syntax-ns#"
   xmlns:svg="http://www.w3.org/2000/svg"
   xmlns="http://www.w3.org/2000/svg"
   xmlns:xlink="http://www.w3.org/1999/xlink"
   xmlns:sodipodi="http://sodipodi.sourceforge.net/DTD/sodipodi-0.dtd"
   xmlns:inkscape="http://www.inkscape.org/namespaces/inkscape"
   width="111.5789"
   height="108.25621"
   viewBox="0 0 89.263116 86.604968"
   id="svg2996"
   sodipodi:version="0.32"
   inkscape:version="0.91 r13725"
   sodipodi:docname="lernstick_usb_100.svg"
   inkscape:output_extension="org.inkscape.output.svg.inkscape"
   version="1.0"
   style="display:inline"
   inkscape:export-filename="/home/ronny/ownCloud/Beruf/PH_FHNW/lernstick/lernstick_usb_1024.png"
   inkscape:export-xdpi="825.96002"
   inkscape:export-ydpi="825.96002">
  <metadata
     id="metadata3021">
    <rdf:RDF>
      <cc:Work
         rdf:about="">
        <dc:format>image/svg+xml</dc:format>
        <dc:type
           rdf:resource="http://purl.org/dc/dcmitype/StillImage" />
        <dc:title />
      </cc:Work>
    </rdf:RDF>
  </metadata>
  <defs
     id="defs3019">
    <radialGradient
       id="XMLID_54_"
       cx="-10.1414"
       cy="60.5"
       r="50.250099"
       gradientTransform="matrix(1,0,0,-1,36.9277,123)"
       gradientUnits="userSpaceOnUse">
      <stop
         offset="0"
         style="stop-color:#ECECF0"
         id="stop127" />
      <stop
         offset="0.549"
         style="stop-color:#E4E4E9"
         id="stop129" />
      <stop
         offset="0.7038"
         style="stop-color:#D6D7DC"
         id="stop131" />
      <stop
         offset="0.8379"
         style="stop-color:#C3C4CB"
         id="stop133" />
      <stop
         offset="0.9576"
         style="stop-color:#AAABB4"
         id="stop135" />
      <stop
         offset="0.9882"
         style="stop-color:#A2A4AD"
         id="stop137" />
    </radialGradient>
    <linearGradient
       id="XMLID_53_"
       gradientUnits="userSpaceOnUse"
       x1="-22.477301"
       y1="95.253899"
       x2="5.9488001"
       y2="11.4655"
       gradientTransform="matrix(1,0,0,-1,36.9277,123)">
      <stop
         offset="0"
         style="stop-color:#EEEEF2"
         id="stop118" />
      <stop
         offset="1"
         style="stop-color:#BABDC7"
         id="stop120" />
    </linearGradient>
    <linearGradient
       id="XMLID_52_"
       gradientUnits="userSpaceOnUse"
       x1="-18.0061"
       y1="91.855499"
       x2="1.8535"
       y2="11.4488"
       gradientTransform="matrix(1,0,0,-1,36.9277,123)">
      <stop
         offset="0.0056"
         style="stop-color:#D3D7CF"
         id="stop109" />
      <stop
         offset="0.1685"
         style="stop-color:#F2F2F0"
         id="stop111" />
      <stop
         offset="0.9101"
         style="stop-color:#888A85"
         id="stop113" />
    </linearGradient>
    <linearGradient
       id="XMLID_51_"
       gradientUnits="userSpaceOnUse"
       x1="-32.888901"
       y1="48.186001"
       x2="16.3955"
       y2="54.3466"
       gradientTransform="matrix(1,0,0,-1,36.9277,123)">
      <stop
         offset="0"
         style="stop-color:#dfbfff;stop-opacity:1;"
         id="stop102" />
      <stop
         offset="1"
         style="stop-color:#34176E"
         id="stop104" />
    </linearGradient>
    <linearGradient
       id="XMLID_50_"
       gradientUnits="userSpaceOnUse"
       x1="-33.092602"
       y1="48.1567"
       x2="16.605101"
       y2="54.373299"
       gradientTransform="matrix(1,0,0,-1,36.9277,123)">
      <stop
         offset="0"
         style="stop-color:#8E79B9"
         id="stop93" />
      <stop
         offset="0.8989"
         style="stop-color:#34176E"
         id="stop95" />
      <stop
         offset="1"
         style="stop-color:#C080FF"
         id="stop97" />
    </linearGradient>
    <linearGradient
       id="XMLID_49_"
       gradientUnits="userSpaceOnUse"
       x1="-1.8631001"
       y1="106.4854"
       x2="-1.2273999"
       y2="108.8577"
       gradientTransform="matrix(1,0,0,-1,36.9277,123)">
      <stop
         offset="0"
         style="stop-color:#E3AD00"
         id="stop80" />
      <stop
         offset="1"
         style="stop-color:#FF7E00"
         id="stop82" />
    </linearGradient>
    <linearGradient
       id="XMLID_48_"
       gradientUnits="userSpaceOnUse"
       x1="-15.8728"
       y1="106.4863"
       x2="-15.2374"
       y2="108.8578"
       gradientTransform="matrix(1,0,0,-1,36.9277,123)">
      <stop
         offset="0"
         style="stop-color:#E3AD00"
         id="stop73" />
      <stop
         offset="1"
         style="stop-color:#FF7E00"
         id="stop75" />
    </linearGradient>
    <linearGradient
       id="XMLID_47_"
       gradientUnits="userSpaceOnUse"
       x1="0.69599998"
       y1="107.6729"
       x2="-4.9085002"
       y2="107.6729"
       gradientTransform="matrix(1,0,0,-1,36.9277,123)">
      <stop
         offset="0"
         style="stop-color:#555753"
         id="stop64" />
      <stop
         offset="1"
         style="stop-color:#2E3436"
         id="stop66" />
    </linearGradient>
    <linearGradient
       id="XMLID_46_"
       gradientUnits="userSpaceOnUse"
       x1="-12.1931"
       y1="107.6729"
       x2="-17.7971"
       y2="107.6729"
       gradientTransform="matrix(1,0,0,-1,36.9277,123)">
      <stop
         offset="0"
         style="stop-color:#555753"
         id="stop55" />
      <stop
         offset="1"
         style="stop-color:#2E3436"
         id="stop57" />
    </linearGradient>
    <linearGradient
       id="XMLID_45_"
       gradientUnits="userSpaceOnUse"
       x1="-20.159401"
       y1="106.5508"
       x2="3.6184001"
       y2="106.5508"
       gradientTransform="matrix(1,0,0,-1,36.9277,123)">
      <stop
         offset="0"
         style="stop-color:#ddc2f7;stop-opacity:1;"
         id="stop40" />
      <stop
         offset="0.2722"
         style="stop-color:#EEEEEE"
         id="stop42" />
      <stop
         offset="0.4705"
         style="stop-color:#EAEAEB"
         id="stop44" />
      <stop
         offset="0.6767"
         style="stop-color:#DDDEE1"
         id="stop46" />
      <stop
         offset="0.8858"
         style="stop-color:#C9CBD2"
         id="stop48" />
      <stop
         offset="1"
         style="stop-color:#BABDC7"
         id="stop50" />
    </linearGradient>
    <linearGradient
       id="XMLID_44_"
       gradientUnits="userSpaceOnUse"
       x1="-19.7185"
       y1="105.1201"
       x2="-10.7522"
       y2="106.2409"
       gradientTransform="matrix(1,0,0,-1,36.9277,123)">
      <stop
         offset="0"
         style="stop-color:#888888"
         id="stop33" />
      <stop
         offset="1"
         style="stop-color:#888A85"
         id="stop35" />
    </linearGradient>
    <radialGradient
       id="XMLID_43_"
       cx="-11.6638"
       cy="11.4248"
       r="8.9890003"
       gradientTransform="matrix(1,0,0,-1,36.9277,123)"
       gradientUnits="userSpaceOnUse">
      <stop
         offset="0"
         style="stop-color:#BBBBBB"
         id="stop22" />
      <stop
         offset="0.2271"
         style="stop-color:#A9A9A9"
         id="stop24" />
      <stop
         offset="0.6814"
         style="stop-color:#7A7A7A"
         id="stop26" />
      <stop
         offset="1"
         style="stop-color:#555555"
         id="stop28" />
    </radialGradient>
    <inkscape:perspective
       sodipodi:type="inkscape:persp3d"
       inkscape:vp_x="0 : 213.75 : 1"
       inkscape:vp_y="0 : 1000 : 0"
       inkscape:vp_z="427.5 : 213.75 : 1"
       inkscape:persp3d-origin="213.75 : 142.5 : 1"
       id="perspective3023" />
    <radialGradient
       inkscape:collect="always"
       xlink:href="#XMLID_43_"
       id="radialGradient3935"
       gradientUnits="userSpaceOnUse"
       gradientTransform="matrix(0.643039,0,0,-0.8,307.17481,229.54246)"
       cx="-11.6638"
       cy="11.4248"
       r="8.9890003" />
    <linearGradient
       inkscape:collect="always"
       xlink:href="#XMLID_44_"
       id="linearGradient3937"
       gradientUnits="userSpaceOnUse"
       gradientTransform="matrix(0.7892089,0,0,-0.8,307.60798,229.54246)"
       x1="-19.7185"
       y1="105.1201"
       x2="-10.7522"
       y2="106.2409" />
    <linearGradient
       inkscape:collect="always"
       xlink:href="#XMLID_45_"
       id="linearGradient3939"
       gradientUnits="userSpaceOnUse"
       gradientTransform="matrix(0.7720124,0,0,-0.8,307.68739,229.54246)"
       x1="-20.159401"
       y1="106.5508"
       x2="3.6184001"
       y2="106.5508" />
    <linearGradient
       inkscape:collect="always"
       xlink:href="#XMLID_46_"
       id="linearGradient3941"
       gradientUnits="userSpaceOnUse"
       gradientTransform="matrix(0.7720124,0,0,-0.8,307.68739,229.54246)"
       x1="-12.1931"
       y1="107.6729"
       x2="-17.7971"
       y2="107.6729" />
    <linearGradient
       inkscape:collect="always"
       xlink:href="#XMLID_47_"
       id="linearGradient3943"
       gradientUnits="userSpaceOnUse"
       gradientTransform="matrix(0.7720124,0,0,-0.8,307.68739,229.54246)"
       x1="0.69599998"
       y1="107.6729"
       x2="-4.9085002"
       y2="107.6729" />
    <linearGradient
       inkscape:collect="always"
       xlink:href="#XMLID_48_"
       id="linearGradient3945"
       gradientUnits="userSpaceOnUse"
       gradientTransform="matrix(0.7720124,0,0,-0.8,307.68739,229.54246)"
       x1="-15.8728"
       y1="106.4863"
       x2="-15.2374"
       y2="108.8578" />
    <linearGradient
       inkscape:collect="always"
       xlink:href="#XMLID_49_"
       id="linearGradient3947"
       gradientUnits="userSpaceOnUse"
       gradientTransform="matrix(0.7720124,0,0,-0.8,307.68739,229.54246)"
       x1="-1.8631001"
       y1="106.4854"
       x2="-1.2273999"
       y2="108.8577" />
    <linearGradient
       inkscape:collect="always"
       xlink:href="#XMLID_52_"
       id="linearGradient3949"
       gradientUnits="userSpaceOnUse"
       gradientTransform="matrix(0.643039,0,0,-0.8,307.17481,229.54246)"
       x1="-18.0061"
       y1="91.855499"
       x2="1.8535"
       y2="11.4488" />
    <linearGradient
       inkscape:collect="always"
       xlink:href="#XMLID_53_"
       id="linearGradient3951"
       gradientUnits="userSpaceOnUse"
       gradientTransform="matrix(0.643039,0,0,-0.8,307.17481,229.54246)"
       x1="-22.477301"
       y1="95.253899"
       x2="5.9488001"
       y2="11.4655" />
    <radialGradient
       inkscape:collect="always"
       xlink:href="#XMLID_54_"
       id="radialGradient3953"
       gradientUnits="userSpaceOnUse"
       gradientTransform="matrix(0.643039,0,0,-0.8,307.17481,229.54246)"
       cx="-10.1414"
       cy="60.5"
       r="50.250099" />
  </defs>
  <sodipodi:namedview
     inkscape:window-height="909"
     inkscape:window-width="1224"
     inkscape:pageshadow="2"
     inkscape:pageopacity="1"
     guidetolerance="10.0"
     gridtolerance="10.0"
     objecttolerance="10.0"
     borderopacity="1.0"
     bordercolor="#666666"
     pagecolor="#ffffff"
     id="base"
     showgrid="false"
     inkscape:zoom="1.1264087"
     inkscape:cx="-28.278671"
     inkscape:cy="7.8674976"
     inkscape:window-x="2"
     inkscape:window-y="29"
     inkscape:current-layer="layer4"
     inkscape:window-maximized="0" />
  <g
     inkscape:groupmode="layer"
     id="layer7"
     inkscape:label="background"
     style="display:inline"
     transform="translate(-88.401525,-67.155646)" />
  <g
     inkscape:groupmode="layer"
     id="layer1"
     transform="translate(-88.401525,-67.155646)" />
  <g
     inkscape:groupmode="layer"
     id="layer4"
     inkscape:label="stick"
     style="opacity:1;display:inline"
     transform="translate(-88.401525,-67.155646)">
    <g
       id="g3909"
       transform="matrix(-0.8135034,0.83767522,-0.76711352,-0.74604888,513.55373,-8.3554007)"
       inkscape:export-filename="/home/ronny/Dokumente/Lernstick/lernstick_usb.png"
       inkscape:export-xdpi="120.99"
       inkscape:export-ydpi="120.99"
       style="">
      <path
         style="opacity:0.25;fill:#323232"
         id="path11"
         d="m 314.10825,160.69046 0,-4.8288 c 0,-0.4952 -0.32217,-0.8968 -0.72085,-0.8968 l -3.24285,0 0,-20.6224 -16.57625,0 0,20.6224 -4.68454,0 c -0.39869,0 -0.72085,0.4016 -0.72085,0.8968 l 0,4.8288 c -1.35103,1.172 -2.1619,2.6264 -2.1619,4.208 l 0,19.832 0,5.8424 0,6.9992 0.003,0 c 0.0257,4.512 0.81216,8.7288 2.15868,12.3408 l 0,2.436 c 0,6.4272 4.2029,11.656 9.36843,11.656 l 7.20783,0 c 5.16617,0 9.36908,-5.2288 9.36908,-11.656 l 0,-2.436 c 1.34652,-3.612 2.13231,-7.8288 2.15868,-12.3408 l 0.003,0 0,-6.9992 0,-5.8424 0,-19.832 c 0,-1.5816 -0.81022,-3.036 -2.16189,-4.208 z"
         enable-background="new    " />
      <path
         sodipodi:nodetypes="ccccccccccccccscccccccccc"
         style="opacity:0.05;fill:#323232"
         id="path13"
         d="m 290.44217,131.08327 c -1.59328,0 -2.89031,1.43608 -2.89031,3.20197 0,0 0,15.96983 0,17.43314 -0.84903,0 0.82634,0 0.82634,0 -2.04056,0 -3.70032,1.83873 -3.70032,4.09932 0,0 0,2.93461 0,3.46373 -1.57377,1.66823 -2.4293,3.58461 -2.4293,5.57864 l 0,32.69293 c 0.0325,4.48516 0.87721,8.94631 2.4293,12.93197 0,0.24575 0,1.85234 0,1.85234 0,8.19625 6.01979,14.86515 13.41752,14.86515 l 4.89936,0 c 7.39846,0 13.41824,-6.6689 13.41824,-14.86515 0,0 0,-1.60819 0,-1.85234 1.55354,-3.98966 2.39678,-8.44761 2.42569,-12.91036 0,-0.006 0.004,-7.02272 0.004,-7.02272 l 0,-25.69182 c 0,-1.99403 -0.85625,-3.91041 -2.4293,-5.57944 0,-0.52912 0,-3.46293 0,-3.46293 0,-2.26059 -1.65976,-4.09932 -3.70031,-4.09932 0,0 -0.37647,0 -0.75365,0 0,-1.46331 0,-17.43314 0,-17.43314 0,-1.76589 -1.2963,-3.20197 -2.89031,-3.20197 l -18.62656,0 0,0 z"
         enable-background="new    " />
      <path
         sodipodi:nodetypes="ccccccccccccccscccccccccc"
         style="opacity:0.1;fill:#323232"
         id="path15"
         d="m 290.89819,131.85367 c -1.17888,0 -2.13824,1.07781 -2.13824,2.40226 0,0 0,16.77015 0,18.23953 -0.93726,0 0.14588,0 0.14588,0 -1.61936,0 -2.93723,1.48059 -2.93723,3.29989 0,0 0,3.21903 0,3.77955 -1.55165,1.55827 -2.39626,3.36556 -2.39626,5.26575 l 0,32.70351 c 0.0321,4.46019 0.86528,8.87393 2.39626,12.79361 0,0.25144 0,1.99708 0,1.99708 0,7.75768 5.61787,14.06921 12.52225,14.06921 l 4.78919,0 c 6.90509,0 12.52296,-6.31153 12.52296,-14.06921 0,0 0,-1.74564 0,-1.99708 1.5317,-3.92208 2.36419,-8.33262 2.3927,-12.7768 0,-0.006 0.004,-7.02099 0.004,-7.02099 l 0,-25.69933 c 0,-1.90019 -0.84603,-3.70748 -2.39626,-5.26655 0,-0.56132 0,-3.77955 0,-3.77955 0,-1.8193 -1.31786,-3.2999 -2.93723,-3.2999 0,0 -0.81395,0 -1.45614,0 0,-1.46938 0,-18.23952 0,-18.23952 0,-1.32445 -0.95936,-2.40226 -2.13824,-2.40226 l -18.3732,8e-4 0,0 z"
         enable-background="new    " />
      <path
         sodipodi:nodetypes="ccccccccccccccscccccccccc"
         style="opacity:0.15;fill:#323232"
         id="path17"
         d="m 291.06063,132.59448 c -0.78342,0 -1.42053,0.71874 -1.42053,1.60255 0,0 0,17.57757 0,19.05271 -1.0043,0 -0.55373,0 -0.55373,0 -1.22236,0 -2.21672,1.12179 -2.21672,2.50078 0,0 0,3.5184 0,4.11375 -1.54482,1.4463 -2.3879,3.13939 -2.3879,4.93745 l 0,32.72487 c 0.032,4.43666 0.86226,8.8028 2.3879,12.65694 0,0.2572 0,2.1434 0,2.1434 0,7.32126 5.27937,13.27713 11.76832,13.27713 l 4.76132,0 c 6.49037,0 11.76903,-5.95748 11.76903,-13.27713 0,0 0,-1.8862 0,-2.1434 1.52636,-3.85654 2.35594,-8.22189 2.38435,-12.64572 0,-0.005 0.004,-7.02077 0.004,-7.02077 l 0,-25.71532 c 0,-1.79806 -0.84379,-3.49195 -2.3879,-4.93825 0,-0.59535 0,-4.11375 0,-4.11375 0,-1.37899 -0.99436,-2.50078 -2.21672,-2.50078 0,0 -1.3566,0 -2.16133,0 0,-1.47595 0,-19.05271 0,-19.05271 0,-0.88381 -0.63639,-1.60255 -1.42052,-1.60255 l -18.30912,8e-4 0,0 z"
         enable-background="new    " />
      <path
         style="opacity:0.2;fill:#323232"
         id="path19"
         d="m 293.5683,133.54246 c -0.35496,0 -0.64304,0.3584 -0.64304,0.8 0,0 0,18.3448 0,19.8224 -0.95749,0 -4.0415,0 -4.0415,0 -0.75172,0 -1.36389,0.7608 -1.36389,1.6968 0,0 0,3.8248 0,4.4576 -1.39797,1.328 -2.1619,2.8976 -2.1619,4.5792 l 0,32.6728 c 0.0283,4.4 0.77937,8.7088 2.1619,12.4896 0,0.2624 0,2.2856 0,2.2856 0,6.8688 4.49098,12.456 10.01147,12.456 l 7.20783,0 c 5.52113,0 10.01212,-5.5872 10.01212,-12.456 0,0 0,-2.0232 0,-2.2856 1.38189,-3.7816 2.13296,-8.088 2.15868,-12.484 l 0.003,-7.0048 0,-25.6736 c 0,-1.6824 -0.76393,-3.2512 -2.16189,-4.58 0,-0.6328 0,-4.4576 0,-4.4576 0,-0.9352 -0.61153,-1.6968 -1.36389,-1.6968 0,0 -1.7735,0 -2.59981,0 0,-1.4784 0,-19.8224 0,-19.8224 0,-0.4416 -0.28743,-0.8 -0.64304,-0.8 l -16.57625,8e-4 0,0 z"
         enable-background="new    " />
      <path
         style="fill:url(#radialGradient3935)"
         id="path30"
         d="m 301.13558,213.79046 c -1.99021,0 -3.60359,2.8104 -3.60359,6.2768 0,3.4664 1.61338,6.2752 3.60359,6.2752 1.99085,0 3.60359,-2.8104 3.60359,-6.2768 0,-3.4664 -1.61274,-6.2752 -3.60359,-6.2752 z m 0,11.6552 c -1.56259,0 -2.88275,-2.464 -2.88275,-5.38 0,-2.9168 1.32081,-5.3808 2.88275,-5.3808 1.56194,0 2.8821,2.464 2.8821,5.3808 6.4e-4,2.916 -1.31952,5.38 -2.8821,5.38 z" />
      <rect
         style="fill:url(#linearGradient3937)"
         id="rect37"
         height="21.5184"
         width="20.344225"
         y="133.54247"
         x="290.90857" />
      <path
         style="fill:url(#linearGradient3939)"
         id="path52"
         d="m 292.12386,134.34246 c 0,1.4256 0,18.4928 0,19.9184 1.36878,0 16.98813,0 18.35691,0 0,-1.4256 0,-18.4928 0,-19.9184 -1.36955,0 -16.98813,0 -18.35691,0 z" />
      <rect
         style="fill:url(#linearGradient3941)"
         id="rect59"
         height="3.5863998"
         width="4.3263578"
         y="141.61206"
         x="293.94812" />
      <path
         style="fill:#2e3436"
         id="path61"
         d="m 294.81278,142.50886 c 0,0.672 0,1.1208 0,1.7928 0.83068,0 1.76482,0 2.5955,0 0,-0.672 0,-1.1208 0,-1.7928 -0.83068,0 -1.76482,0 -2.5955,0 z" />
      <rect
         style="fill:url(#linearGradient3943)"
         id="rect68"
         height="3.5863998"
         width="4.3263578"
         y="141.61206"
         x="303.89859" />
      <path
         style="fill:#2e3436"
         id="path70"
         d="m 304.76324,142.50886 c 0,0.672 0,1.1208 0,1.7928 0.83069,0 1.7656,0 2.59551,0 0,-0.672 0,-1.1208 0,-1.7928 -0.82991,0 -1.76482,0 -2.59551,0 z" />
      <rect
         style="fill:url(#linearGradient3945)"
         id="rect77"
         height="1.7927999"
         width="0.86465389"
         y="142.50887"
         x="295.24588" />
      <rect
         style="fill:url(#linearGradient3947)"
         id="rect84"
         height="1.7927999"
         width="0.86542594"
         y="142.50887"
         x="306.06177" />
      <rect
         style="fill:#dddddd"
         id="rect86"
         height="20.7192"
         width="0.86542594"
         y="134.34245"
         x="292.21729" />
      <rect
         style="fill:#eeeeee"
         id="rect88"
         height="20.6224"
         width="0.86542594"
         y="134.43925"
         x="309.7381" />
      <path
         style="fill:#dccf2c;fill-opacity:1"
         id="path90"
         d="m 305.58734,157.10006 -8.90352,0 c -5.89924,0 -10.68281,3.1336 -10.68281,6.9984 l 0,19.832 0,5.8424 0,6.9992 0.003,0 c 0.0765,13.3816 6.82071,24.1912 15.13135,24.1912 8.31063,0 15.05418,-10.8112 15.13135,-24.1912 l 0.003,0 0,-6.9992 0,-5.8424 0,-19.832 c 0,-3.8648 -4.78356,-6.9984 -10.6828,-6.9984 z" />
      <path
         style="fill:#f0f012;fill-opacity:1"
         id="path99"
         d="m 296.68382,157.90006 c -5.44204,0 -10.03977,2.8384 -10.03977,6.1984 l 0,32.6728 c 0.0772,12.8952 6.577,23.3912 14.49153,23.3912 7.91452,0 14.41372,-10.496 14.48831,-23.3968 l 0.003,-6.9936 0,-25.6736 c 0,-3.36 -4.59772,-6.1992 -10.03976,-6.1992 l -8.90352,8e-4 0,0 z" />
      <path
         style="fill:#faec32;fill-opacity:1"
         id="path106"
         d="m 296.68382,159.78966 c -5.12245,0 -8.52091,2.5936 -8.52091,4.3088 l 0,32.6728 c 0.0714,11.8496 5.89088,21.5016 12.97267,21.5016 7.08307,0 12.90065,-9.6544 12.96881,-21.52 0,0.0128 0.004,-6.9816 0.004,-6.9816 l 0,-25.6728 c 0,-1.716 -3.39846,-4.3088 -8.52091,-4.3088 l -8.90352,0 0,0 z" />
      <path
         style="fill:url(#linearGradient3949)"
         id="path115"
         d="m 304.73917,154.16486 -15.85541,0 c -0.39869,0 -0.72085,0.4016 -0.72085,0.8968 l 0,6.6 c 0,0.168 0.0379,0.3328 0.10867,0.4752 3.09045,6.1552 4.93533,16.7504 4.93533,28.3408 0,11.5904 -1.84488,10.5288 -4.93533,16.684 -0.0707,0.1432 -0.10867,0.308 -0.10867,0.476 l 0,3.9104 c 0,6.4272 4.2029,11.656 9.36843,11.656 l 7.20783,0 c 5.16617,0 9.36908,-5.2288 9.36908,-11.656 l 0,-3.9104 c 0,-0.168 -0.0379,-0.3328 -0.10996,-0.476 -3.09045,-6.1552 -4.93533,-5.0936 -4.93533,-16.684 0,-11.5904 1.84488,-22.1848 4.93533,-28.3408 0.072,-0.1424 0.10996,-0.3072 0.10996,-0.4752 l 0,-6.6 c 0,-0.4952 -0.32217,-0.8968 -0.72085,-0.8968 l -8.64823,0 0,0 z" />
      <path
         style="fill:url(#linearGradient3951)"
         id="path122"
         d="m 288.88376,154.96486 c -0.0424,0 -0.0778,0.0432 -0.0778,0.0968 l 0,6.6 c 3.16311,6.3288 5.04464,17.0816 5.04464,28.816 0,8.9312 -1.11953,10.6768 -2.9747,13.5688 -0.60639,0.9456 -1.29444,2.0168 -2.05837,3.54 l -0.0116,3.9616 c 0,5.9856 3.91418,10.856 8.72539,10.856 l 7.20783,0 c 4.81122,0 8.72604,-4.8704 8.72604,-10.856 l 0,-3.9104 c -0.77615,-1.5736 -1.46356,-2.6456 -2.07059,-3.5912 -1.85581,-2.892 -2.9747,-4.6376 -2.9747,-13.5688 0,-11.7336 1.88154,-22.4872 5.03243,-28.7648 l 0.0129,-6.6512 c 0,-0.0528 -0.0354,-0.0968 -0.0778,-0.0968 l -24.50364,0 0,0 z" />
      <path
         style="fill:url(#radialGradient3953)"
         id="path139"
         d="m 289.44899,155.76486 c 0,1.0848 0,5.36 0,5.696 3.1586,6.4672 5.04464,17.276 5.04464,29.0168 0,9.2112 -1.23914,11.1432 -3.11488,14.068 -0.56845,0.8848 -1.21342,1.9072 -1.91883,3.2872 -0.001,0.4296 -0.0109,3.7168 -0.0109,3.7168 0,5.5432 3.62609,10.0528 8.08235,10.0528 l 7.20783,0 c 4.45819,0 8.083,-4.512 8.083,-10.056 0,0 0,-3.24 0,-3.6672 -0.71377,-1.42 -1.35939,-2.4456 -1.92719,-3.3312 -1.87896,-2.9288 -3.1181,-4.8608 -3.1181,-14.072 0,-11.7512 1.88218,-22.5408 5.03307,-28.9664 6.4e-4,-0.336 0.009,-4.6568 0.0109,-5.7464 -1.05522,0.002 -22.31795,0.002 -23.37189,0.002 z" />
      <text
         transform="matrix(-0.00117556,-0.9999993,0.9999993,-0.00117556,0,0)"
         id="text3521"
         y="305.3598"
         x="-210.42859"
         style="font-size:31.99999809px;font-style:normal;font-weight:normal;fill:#000000;fill-opacity:1;stroke:none;font-family:Bitstream Vera Sans"
         xml:space="preserve"><tspan
           style="font-size:12.79999924px;font-style:normal;font-variant:normal;font-weight:normal;font-stretch:normal;font-family:Arial;-inkscape-font-specification:Arial"
           y="305.3598"
           x="-210.42859"
           id="tspan3523"
           sodipodi:role="line">lernstick</tspan></text>
    </g>
  </g>
  <text
     xml:space="preserve"
     style="font-size:40px;font-style:normal;font-weight:normal;line-height:125%;fill:#000000;fill-opacity:1;stroke:none;font-family:Bitstream Vera Sans"
     x="39.663418"
     y="-41.246555"
     id="text5419"
     sodipodi:linespacing="125%"><tspan
       sodipodi:role="line"
       id="tspan5421"
       x="39.663418"
       y="-41.246555"
       style="font-size:18px;font-style:normal;font-variant:normal;font-weight:bold;font-stretch:normal;text-align:start;line-height:125%;writing-mode:lr-tb;text-anchor:start;font-family:Calibri;-inkscape-font-specification:Calibri Bold" /></text>
  <text
     xml:space="preserve"
     style="font-size:40px;font-style:normal;font-weight:normal;fill:#000000;fill-opacity:1;stroke:none;font-family:Bitstream Vera Sans"
     x="71.494576"
     y="-4.9738302"
     id="text5423"><tspan
       sodipodi:role="line"
       id="tspan5425"
       x="71.494576"
       y="-4.9738302" /></text>
  <text
     xml:space="preserve"
     style="font-size:40px;font-style:normal;font-weight:normal;fill:#000000;fill-opacity:1;stroke:none;font-family:Bitstream Vera Sans"
     x="72.234825"
     y="-2.7530506"
     id="text5427"><tspan
       sodipodi:role="line"
       id="tspan5429"
       x="72.234825"
       y="-2.7530506" /></text>
  <text
     xml:space="preserve"
     style="font-size:40px;font-style:normal;font-weight:normal;fill:#000000;fill-opacity:1;stroke:none;font-family:Bitstream Vera Sans"
     x="78.897179"
     y="-5.7140875"
     id="text5431"><tspan
       sodipodi:role="line"
       id="tspan5433"
       x="78.897179"
       y="-5.7140875" /></text>
  <g
     inkscape:groupmode="layer"
     id="layer3"
     inkscape:label="dvd"
     transform="translate(-88.401525,-67.155646)" />
  <g
     inkscape:groupmode="layer"
     id="layer2"
     inkscape:label="innenkreis"
     style="display:none"
     transform="translate(-88.401525,-67.155646)">
    <g
       transform="translate(116.512,116.512)"
       style="fill:#ffffff;fill-rule:nonzero;stroke:#161413;stroke-width:1;stroke-linecap:butt;stroke-linejoin:miter;stroke-dasharray:none"
       id="g3014">
      <path
         d="m 109.134,54.567 c 0,30.136 -24.431,54.567 -54.567,54.567 C 24.43,109.134 0,84.703 0,54.567 0,24.43 24.43,0 54.567,0 c 30.136,0 54.567,24.43 54.567,54.567 z"
         id="path3016" />
    </g>
  </g>
  <g
     inkscape:groupmode="layer"
     id="layer6"
     transform="translate(-88.401525,-67.155646)" />
  <g
     inkscape:groupmode="layer"
     id="layer9"
     transform="translate(-88.401525,-67.155646)" />
</svg>
