<?xml version="1.0" encoding="UTF-8"?>
<svg width="111.58" height="108.26" version="1.0" viewBox="0 0 89.263 86.605" xmlns="http://www.w3.org/2000/svg" xmlns:cc="http://creativecommons.org/ns#" xmlns:dc="http://purl.org/dc/elements/1.1/" xmlns:rdf="http://www.w3.org/1999/02/22-rdf-syntax-ns#">
 <metadata>
  <rdf:RDF>
   <cc:Work rdf:about="">
    <dc:format>image/svg+xml</dc:format>
    <dc:type rdf:resource="http://purl.org/dc/dcmitype/StillImage"/>
    <dc:title/>
   </cc:Work>
  </rdf:RDF>
 </metadata>
 <g transform="translate(-88.402 -67.156)">
  <g transform="matrix(1.1388 0 0 1.1388 84.413 67.543)">
   <path d="m39.61 45.57h-29.56c-0.94 0-1.7-0.76-1.7-1.7v-29.55c0-0.94 0.76-1.7 1.7-1.7h29.56c0.94 0 1.7 0.76 1.7 1.7v29.56c0 0.93-0.76 1.69-1.7 1.69z" fill="#697d91"/>
   <g fill="#fac300">
    <path class="st0" d="m78.95 27.89-20.9-20.9c-0.66-0.66-1.74-0.66-2.41 0l-13.32 13.32h10.56c0.94 0 1.7 0.76 1.7 1.7v14.16c0 0.94-0.76 1.7-1.7 1.7h-10.56l13.33 13.33c0.66 0.66 1.74 0.66 2.41 0l20.9-20.9c0.66-0.67 0.66-1.74-0.01-2.41z" fill="#fac300"/>
   </g>
  </g>
  <g transform="matrix(.4747 0 0 .4747 87.718 105.1)" fill="#697d91">
   <path d="m10.48 74.67v-22.09h-1.9v22.09c0 5.74 4.67 10.42 10.42 10.42v-1.9c-4.7-0.01-8.52-3.83-8.52-8.52z"/>
   <path d="m115.9 74.67v-14.91h4.95v-1.9h-4.95v-5.28h-1.9v5.28h-3.4v1.9h3.4v14.91c0 5.74 4.67 10.42 10.42 10.42v-1.9c-4.7-0.01-8.52-3.83-8.52-8.52z"/>
   <path d="m47.6 69.46v15.24h1.9v-15.24c0-4.6 3.74-8.35 8.35-8.35v-1.9c-5.65-0.01-10.25 4.59-10.25 10.25z"/>
   <path d="m72.66 58.97c-5.7 0-10.34 4.64-10.34 10.34v15.39h1.9v-15.39c0-4.65 3.79-8.44 8.44-8.44s8.44 3.79 8.44 8.44v15.39h1.9v-15.39c0-5.7-4.64-10.34-10.34-10.34z"/>
   <path d="m42.45 69.36c0-5.68-4.63-10.3-10.31-10.3s-10.31 4.62-10.31 10.31v5.41c0 5.68 4.63 10.3 10.31 10.3 4.34 0 8.24-2.74 9.7-6.83l-1.79-0.64c-1.19 3.33-4.37 5.57-7.91 5.57-4.63 0-8.4-3.77-8.4-8.4v-1.14l18.71-4.05v-0.23 0zm-18.71 0.01c0-4.63 3.77-8.4 8.4-8.4 4.19 0 7.66 3.09 8.29 7.1l-16.7 3.62v-2.32z"/>
   <path d="m147.39 83.18c-4.63 0-8.4-3.77-8.4-8.4v-5.41c0-4.63 3.77-8.4 8.4-8.4 3.29 0 6.3 1.94 7.66 4.94l1.73-0.79c-1.67-3.68-5.36-6.05-9.39-6.05-5.68 0-10.31 4.62-10.31 10.31v5.41c0 5.68 4.63 10.3 10.31 10.3 4.34 0 8.24-2.74 9.71-6.83l-1.79-0.64c-1.2 3.32-4.38 5.56-7.92 5.56z"/>
   <polygon points="163.48 73.36 167.5 70.59 182.23 84.84 183.56 83.47 169.1 69.48 181.91 60.66 180.83 59.09 163.48 71.04 163.48 52.58 161.58 52.58 161.58 84.69 163.48 84.69"/>
   <path d="m107.98 73.02-17.97-3.88c0.07-4.57 3.81-8.27 8.4-8.27 3.54 0 6.72 2.24 7.91 5.57l1.79-0.64c-1.46-4.08-5.36-6.83-9.7-6.83-5.68 0-10.3 4.62-10.31 10.3v0.63c0 0.25 0.11 0.51 0.29 0.68 0.13 0.13 0.29 0.22 0.47 0.26l17.95 3.88c-0.02 4.62-3.78 8.37-8.4 8.37-3.63 0-6.84-2.31-7.98-5.76l-1.81 0.6c1.4 4.23 5.33 7.06 9.79 7.06 5.68 0 10.31-4.62 10.31-10.3l0.01-0.74c0.01-0.45-0.31-0.84-0.75-0.93z"/>
   <rect x="128.47" y="59.66" width="1.9" height="25.02"/>
   <path d="m129.42 52.51c-0.71 0-1.29 0.58-1.29 1.29s0.58 1.29 1.29 1.29 1.29-0.58 1.29-1.29-0.58-1.29-1.29-1.29z"/>
  </g>
 </g>
</svg>
