<?xml version="1.0" encoding="UTF-8" standalone="no"?>
<svg
   xmlns:dc="http://purl.org/dc/elements/1.1/"
   xmlns:cc="http://creativecommons.org/ns#"
   xmlns:rdf="http://www.w3.org/1999/02/22-rdf-syntax-ns#"
   xmlns:svg="http://www.w3.org/2000/svg"
   xmlns="http://www.w3.org/2000/svg"
   xmlns:xlink="http://www.w3.org/1999/xlink"
   xmlns:sodipodi="http://sodipodi.sourceforge.net/DTD/sodipodi-0.dtd"
   xmlns:inkscape="http://www.inkscape.org/namespaces/inkscape"
   width="342pt"
   height="342pt"
   viewBox="0 0 342 342"
   id="svg2996"
   sodipodi:version="0.32"
   inkscape:version="0.47 r22583"
   sodipodi:docname="lernstick_dvd.svg"
   inkscape:output_extension="org.inkscape.output.svg.inkscape"
   version="1.0"
   style="display:inline"
   inkscape:export-filename="/home/ronny/Dokumente/Lernstick/lernstick_dvd_2010_12.png"
   inkscape:export-xdpi="422.09"
   inkscape:export-ydpi="422.09">
  <metadata
     id="metadata3021">
    <rdf:RDF>
      <cc:Work
         rdf:about="">
        <dc:format>image/svg+xml</dc:format>
        <dc:type
           rdf:resource="http://purl.org/dc/dcmitype/StillImage" />
        <dc:title></dc:title>
      </cc:Work>
    </rdf:RDF>
  </metadata>
  <defs
     id="defs3019">
    <radialGradient
       id="XMLID_54_"
       cx="-10.1414"
       cy="60.5"
       r="50.250099"
       gradientTransform="matrix(1,0,0,-1,36.9277,123)"
       gradientUnits="userSpaceOnUse">
      <stop
         offset="0"
         style="stop-color:#ECECF0"
         id="stop127" />
      <stop
         offset="0.549"
         style="stop-color:#E4E4E9"
         id="stop129" />
      <stop
         offset="0.7038"
         style="stop-color:#D6D7DC"
         id="stop131" />
      <stop
         offset="0.8379"
         style="stop-color:#C3C4CB"
         id="stop133" />
      <stop
         offset="0.9576"
         style="stop-color:#AAABB4"
         id="stop135" />
      <stop
         offset="0.9882"
         style="stop-color:#A2A4AD"
         id="stop137" />
    </radialGradient>
    <linearGradient
       id="XMLID_53_"
       gradientUnits="userSpaceOnUse"
       x1="-22.477301"
       y1="95.253899"
       x2="5.9488001"
       y2="11.4655"
       gradientTransform="matrix(1,0,0,-1,36.9277,123)">
      <stop
         offset="0"
         style="stop-color:#EEEEF2"
         id="stop118" />
      <stop
         offset="1"
         style="stop-color:#BABDC7"
         id="stop120" />
    </linearGradient>
    <linearGradient
       id="XMLID_52_"
       gradientUnits="userSpaceOnUse"
       x1="-18.0061"
       y1="91.855499"
       x2="1.8535"
       y2="11.4488"
       gradientTransform="matrix(1,0,0,-1,36.9277,123)">
      <stop
         offset="0.0056"
         style="stop-color:#D3D7CF"
         id="stop109" />
      <stop
         offset="0.1685"
         style="stop-color:#F2F2F0"
         id="stop111" />
      <stop
         offset="0.9101"
         style="stop-color:#888A85"
         id="stop113" />
    </linearGradient>
    <linearGradient
       id="XMLID_51_"
       gradientUnits="userSpaceOnUse"
       x1="-32.888901"
       y1="48.186001"
       x2="16.3955"
       y2="54.3466"
       gradientTransform="matrix(1,0,0,-1,36.9277,123)">
      <stop
         offset="0"
         style="stop-color:#dfbfff;stop-opacity:1;"
         id="stop102" />
      <stop
         offset="1"
         style="stop-color:#34176E"
         id="stop104" />
    </linearGradient>
    <linearGradient
       id="XMLID_50_"
       gradientUnits="userSpaceOnUse"
       x1="-33.092602"
       y1="48.1567"
       x2="16.605101"
       y2="54.373299"
       gradientTransform="matrix(1,0,0,-1,36.9277,123)">
      <stop
         offset="0"
         style="stop-color:#8E79B9"
         id="stop93" />
      <stop
         offset="0.8989"
         style="stop-color:#34176E"
         id="stop95" />
      <stop
         offset="1"
         style="stop-color:#C080FF"
         id="stop97" />
    </linearGradient>
    <linearGradient
       id="XMLID_49_"
       gradientUnits="userSpaceOnUse"
       x1="-1.8631001"
       y1="106.4854"
       x2="-1.2273999"
       y2="108.8577"
       gradientTransform="matrix(1,0,0,-1,36.9277,123)">
      <stop
         offset="0"
         style="stop-color:#E3AD00"
         id="stop80" />
      <stop
         offset="1"
         style="stop-color:#FF7E00"
         id="stop82" />
    </linearGradient>
    <linearGradient
       id="XMLID_48_"
       gradientUnits="userSpaceOnUse"
       x1="-15.8728"
       y1="106.4863"
       x2="-15.2374"
       y2="108.8578"
       gradientTransform="matrix(1,0,0,-1,36.9277,123)">
      <stop
         offset="0"
         style="stop-color:#E3AD00"
         id="stop73" />
      <stop
         offset="1"
         style="stop-color:#FF7E00"
         id="stop75" />
    </linearGradient>
    <linearGradient
       id="XMLID_47_"
       gradientUnits="userSpaceOnUse"
       x1="0.69599998"
       y1="107.6729"
       x2="-4.9085002"
       y2="107.6729"
       gradientTransform="matrix(1,0,0,-1,36.9277,123)">
      <stop
         offset="0"
         style="stop-color:#555753"
         id="stop64" />
      <stop
         offset="1"
         style="stop-color:#2E3436"
         id="stop66" />
    </linearGradient>
    <linearGradient
       id="XMLID_46_"
       gradientUnits="userSpaceOnUse"
       x1="-12.1931"
       y1="107.6729"
       x2="-17.7971"
       y2="107.6729"
       gradientTransform="matrix(1,0,0,-1,36.9277,123)">
      <stop
         offset="0"
         style="stop-color:#555753"
         id="stop55" />
      <stop
         offset="1"
         style="stop-color:#2E3436"
         id="stop57" />
    </linearGradient>
    <linearGradient
       id="XMLID_45_"
       gradientUnits="userSpaceOnUse"
       x1="-20.159401"
       y1="106.5508"
       x2="3.6184001"
       y2="106.5508"
       gradientTransform="matrix(1,0,0,-1,36.9277,123)">
      <stop
         offset="0"
         style="stop-color:#ddc2f7;stop-opacity:1;"
         id="stop40" />
      <stop
         offset="0.2722"
         style="stop-color:#EEEEEE"
         id="stop42" />
      <stop
         offset="0.4705"
         style="stop-color:#EAEAEB"
         id="stop44" />
      <stop
         offset="0.6767"
         style="stop-color:#DDDEE1"
         id="stop46" />
      <stop
         offset="0.8858"
         style="stop-color:#C9CBD2"
         id="stop48" />
      <stop
         offset="1"
         style="stop-color:#BABDC7"
         id="stop50" />
    </linearGradient>
    <linearGradient
       id="XMLID_44_"
       gradientUnits="userSpaceOnUse"
       x1="-19.7185"
       y1="105.1201"
       x2="-10.7522"
       y2="106.2409"
       gradientTransform="matrix(1,0,0,-1,36.9277,123)">
      <stop
         offset="0"
         style="stop-color:#888888"
         id="stop33" />
      <stop
         offset="1"
         style="stop-color:#888A85"
         id="stop35" />
    </linearGradient>
    <radialGradient
       id="XMLID_43_"
       cx="-11.6638"
       cy="11.4248"
       r="8.9890003"
       gradientTransform="matrix(1,0,0,-1,36.9277,123)"
       gradientUnits="userSpaceOnUse">
      <stop
         offset="0"
         style="stop-color:#BBBBBB"
         id="stop22" />
      <stop
         offset="0.2271"
         style="stop-color:#A9A9A9"
         id="stop24" />
      <stop
         offset="0.6814"
         style="stop-color:#7A7A7A"
         id="stop26" />
      <stop
         offset="1"
         style="stop-color:#555555"
         id="stop28" />
    </radialGradient>
    <inkscape:perspective
       sodipodi:type="inkscape:persp3d"
       inkscape:vp_x="0 : 213.75 : 1"
       inkscape:vp_y="0 : 1000 : 0"
       inkscape:vp_z="427.5 : 213.75 : 1"
       inkscape:persp3d-origin="213.75 : 142.5 : 1"
       id="perspective3023" />
    <radialGradient
       inkscape:collect="always"
       xlink:href="#XMLID_43_"
       id="radialGradient3935"
       gradientUnits="userSpaceOnUse"
       gradientTransform="matrix(0.643039,0,0,-0.8,307.17481,229.54246)"
       cx="-11.6638"
       cy="11.4248"
       r="8.9890003" />
    <linearGradient
       inkscape:collect="always"
       xlink:href="#XMLID_44_"
       id="linearGradient3937"
       gradientUnits="userSpaceOnUse"
       gradientTransform="matrix(0.7892089,0,0,-0.8,307.60798,229.54246)"
       x1="-19.7185"
       y1="105.1201"
       x2="-10.7522"
       y2="106.2409" />
    <linearGradient
       inkscape:collect="always"
       xlink:href="#XMLID_45_"
       id="linearGradient3939"
       gradientUnits="userSpaceOnUse"
       gradientTransform="matrix(0.7720124,0,0,-0.8,307.68739,229.54246)"
       x1="-20.159401"
       y1="106.5508"
       x2="3.6184001"
       y2="106.5508" />
    <linearGradient
       inkscape:collect="always"
       xlink:href="#XMLID_46_"
       id="linearGradient3941"
       gradientUnits="userSpaceOnUse"
       gradientTransform="matrix(0.7720124,0,0,-0.8,307.68739,229.54246)"
       x1="-12.1931"
       y1="107.6729"
       x2="-17.7971"
       y2="107.6729" />
    <linearGradient
       inkscape:collect="always"
       xlink:href="#XMLID_47_"
       id="linearGradient3943"
       gradientUnits="userSpaceOnUse"
       gradientTransform="matrix(0.7720124,0,0,-0.8,307.68739,229.54246)"
       x1="0.69599998"
       y1="107.6729"
       x2="-4.9085002"
       y2="107.6729" />
    <linearGradient
       inkscape:collect="always"
       xlink:href="#XMLID_48_"
       id="linearGradient3945"
       gradientUnits="userSpaceOnUse"
       gradientTransform="matrix(0.7720124,0,0,-0.8,307.68739,229.54246)"
       x1="-15.8728"
       y1="106.4863"
       x2="-15.2374"
       y2="108.8578" />
    <linearGradient
       inkscape:collect="always"
       xlink:href="#XMLID_49_"
       id="linearGradient3947"
       gradientUnits="userSpaceOnUse"
       gradientTransform="matrix(0.7720124,0,0,-0.8,307.68739,229.54246)"
       x1="-1.8631001"
       y1="106.4854"
       x2="-1.2273999"
       y2="108.8577" />
    <linearGradient
       inkscape:collect="always"
       xlink:href="#XMLID_52_"
       id="linearGradient3949"
       gradientUnits="userSpaceOnUse"
       gradientTransform="matrix(0.643039,0,0,-0.8,307.17481,229.54246)"
       x1="-18.0061"
       y1="91.855499"
       x2="1.8535"
       y2="11.4488" />
    <linearGradient
       inkscape:collect="always"
       xlink:href="#XMLID_53_"
       id="linearGradient3951"
       gradientUnits="userSpaceOnUse"
       gradientTransform="matrix(0.643039,0,0,-0.8,307.17481,229.54246)"
       x1="-22.477301"
       y1="95.253899"
       x2="5.9488001"
       y2="11.4655" />
    <radialGradient
       inkscape:collect="always"
       xlink:href="#XMLID_54_"
       id="radialGradient3953"
       gradientUnits="userSpaceOnUse"
       gradientTransform="matrix(0.643039,0,0,-0.8,307.17481,229.54246)"
       cx="-10.1414"
       cy="60.5"
       r="50.250099" />
  </defs>
  <sodipodi:namedview
     inkscape:window-height="909"
     inkscape:window-width="1224"
     inkscape:pageshadow="2"
     inkscape:pageopacity="0.0"
     guidetolerance="10.0"
     gridtolerance="10.0"
     objecttolerance="10.0"
     borderopacity="1.0"
     bordercolor="#666666"
     pagecolor="#ffffff"
     id="base"
     showgrid="false"
     inkscape:zoom="1.1264087"
     inkscape:cx="213.75002"
     inkscape:cy="269.51635"
     inkscape:window-x="2"
     inkscape:window-y="29"
     inkscape:current-layer="layer6"
     inkscape:window-maximized="0" />
  <g
     inkscape:groupmode="layer"
     id="layer7"
     inkscape:label="background"
     sodipodi:insensitive="true">
    <rect
       style="opacity:1;fill:#ffffff;fill-opacity:1;stroke:none;stroke-width:1;stroke-miterlimit:4;stroke-dasharray:2, 1;stroke-dashoffset:0;stroke-opacity:1"
       id="rect3019"
       width="339.77921"
       height="339.77917"
       x="0.7402603"
       y="0.74027431" />
  </g>
  <g
     inkscape:groupmode="layer"
     id="layer1"
     sodipodi:insensitive="true">
    <rect
       style="opacity:1;fill:#faea31;fill-opacity:1;stroke:none;stroke-width:1;stroke-miterlimit:4;stroke-dasharray:2, 1;stroke-dashoffset:0;stroke-opacity:1"
       id="rect3867"
       width="59.220772"
       height="301.28571"
       x="1.1103851"
       y="24.79871" />
  </g>
  <g
     inkscape:groupmode="layer"
     id="layer4"
     inkscape:label="stick"
     style="opacity:0.6;display:inline">
    <g
       id="g3909"
       transform="matrix(1.1675596,-1.7092059e-2,1.4894954e-2,1.0699674,-69.252341,-14.888152)"
       inkscape:export-filename="/home/ronny/Dokumente/Lernstick/lernstick_fhnwkonform.png"
       inkscape:export-xdpi="422.09"
       inkscape:export-ydpi="422.09">
      <path
         style="opacity:0.25;fill:#323232"
         id="path11"
         d="M 314.10825,160.69046 L 314.10825,155.86166 C 314.10825,155.36646 313.78608,154.96486 313.3874,154.96486 L 310.14455,154.96486 L 310.14455,134.34246 L 293.5683,134.34246 L 293.5683,154.96486 L 288.88376,154.96486 C 288.48507,154.96486 288.16291,155.36646 288.16291,155.86166 L 288.16291,160.69046 C 286.81188,161.86246 286.00101,163.31686 286.00101,164.89846 L 286.00101,184.73046 L 286.00101,190.57286 L 286.00101,197.57206 L 286.00423,197.57206 C 286.02995,202.08406 286.81639,206.30086 288.16291,209.91286 L 288.16291,212.34886 C 288.16291,218.77606 292.36581,224.00486 297.53134,224.00486 L 304.73917,224.00486 C 309.90534,224.00486 314.10825,218.77606 314.10825,212.34886 L 314.10825,209.91286 C 315.45477,206.30086 316.24056,202.08406 316.26693,197.57206 L 316.27014,197.57206 L 316.27014,190.57286 L 316.27014,184.73046 L 316.27014,164.89846 C 316.27014,163.31686 315.45992,161.86246 314.10825,160.69046 z"
         enable-background="new    " />
      <path
         sodipodi:nodetypes="ccccccccccccccscccccccccc"
         style="opacity:0.05;fill:#323232"
         id="path13"
         d="M 290.44217,131.08327 C 288.84889,131.08327 287.55186,132.51935 287.55186,134.28524 C 287.55186,134.28524 287.55186,150.25507 287.55186,151.71838 C 286.70283,151.71838 288.3782,151.71838 288.3782,151.71838 C 286.33764,151.71838 284.67788,153.55711 284.67788,155.8177 C 284.67788,155.8177 284.67788,158.75231 284.67788,159.28143 C 283.10411,160.94966 282.24858,162.86604 282.24858,164.86007 L 282.24858,197.553 C 282.2811,202.03816 283.12579,206.49931 284.67788,210.48497 C 284.67788,210.73072 284.67788,212.33731 284.67788,212.33731 C 284.67788,220.53356 290.69767,227.20246 298.0954,227.20246 L 302.99476,227.20246 C 310.39322,227.20246 316.413,220.53356 316.413,212.33731 C 316.413,212.33731 316.413,210.72912 316.413,210.48497 C 317.96654,206.49531 318.80978,202.03736 318.83869,197.57461 C 318.83869,197.56821 318.8423,190.55189 318.8423,190.55189 L 318.8423,164.86007 C 318.8423,162.86604 317.98605,160.94966 316.413,159.28063 C 316.413,158.75151 316.413,155.8177 316.413,155.8177 C 316.413,153.55711 314.75324,151.71838 312.71269,151.71838 C 312.71269,151.71838 312.33622,151.71838 311.95904,151.71838 C 311.95904,150.25507 311.95904,134.28524 311.95904,134.28524 C 311.95904,132.51935 310.66274,131.08327 309.06873,131.08327 L 290.44217,131.08327 L 290.44217,131.08327 z"
         enable-background="new    " />
      <path
         sodipodi:nodetypes="ccccccccccccccscccccccccc"
         style="opacity:0.1;fill:#323232"
         id="path15"
         d="M 290.89819,131.85367 C 289.71931,131.85367 288.75995,132.93148 288.75995,134.25593 C 288.75995,134.25593 288.75995,151.02608 288.75995,152.49546 C 287.82269,152.49546 288.90583,152.49546 288.90583,152.49546 C 287.28647,152.49546 285.9686,153.97605 285.9686,155.79535 C 285.9686,155.79535 285.9686,159.01438 285.9686,159.5749 C 284.41695,161.13317 283.57234,162.94046 283.57234,164.84065 L 283.57234,197.54416 C 283.60441,202.00435 284.43762,206.41809 285.9686,210.33777 C 285.9686,210.58921 285.9686,212.33485 285.9686,212.33485 C 285.9686,220.09253 291.58647,226.40406 298.49085,226.40406 L 303.28004,226.40406 C 310.18513,226.40406 315.803,220.09253 315.803,212.33485 C 315.803,212.33485 315.803,210.58921 315.803,210.33777 C 317.3347,206.41569 318.16719,202.00515 318.1957,197.56097 C 318.1957,197.55537 318.19926,190.53998 318.19926,190.53998 L 318.19926,164.84065 C 318.19926,162.94046 317.35323,161.13317 315.803,159.5741 C 315.803,159.01278 315.803,155.79455 315.803,155.79455 C 315.803,153.97525 314.48514,152.49465 312.86577,152.49465 C 312.86577,152.49465 312.05182,152.49465 311.40963,152.49465 C 311.40963,151.02527 311.40963,134.25513 311.40963,134.25513 C 311.40963,132.93068 310.45027,131.85287 309.27139,131.85287 L 290.89819,131.85367 L 290.89819,131.85367 z"
         enable-background="new    " />
      <path
         sodipodi:nodetypes="ccccccccccccccscccccccccc"
         style="opacity:0.15;fill:#323232"
         id="path17"
         d="M 291.06063,132.59448 C 290.27721,132.59448 289.6401,133.31322 289.6401,134.19703 C 289.6401,134.19703 289.6401,151.7746 289.6401,153.24974 C 288.6358,153.24974 289.08637,153.24974 289.08637,153.24974 C 287.86401,153.24974 286.86965,154.37153 286.86965,155.75052 C 286.86965,155.75052 286.86965,159.26892 286.86965,159.86427 C 285.32483,161.31057 284.48175,163.00366 284.48175,164.80172 L 284.48175,197.52659 C 284.51371,201.96325 285.34401,206.32939 286.86965,210.18353 C 286.86965,210.44073 286.86965,212.32693 286.86965,212.32693 C 286.86965,219.64819 292.14902,225.60406 298.63797,225.60406 L 303.39929,225.60406 C 309.88966,225.60406 315.16832,219.64658 315.16832,212.32693 C 315.16832,212.32693 315.16832,210.44073 315.16832,210.18353 C 316.69468,206.32699 317.52426,201.96164 317.55267,197.53781 C 317.55267,197.533 317.55622,190.51704 317.55622,190.51704 L 317.55622,164.80172 C 317.55622,163.00366 316.71243,161.30977 315.16832,159.86347 C 315.16832,159.26812 315.16832,155.74972 315.16832,155.74972 C 315.16832,154.37073 314.17396,153.24894 312.9516,153.24894 C 312.9516,153.24894 311.595,153.24894 310.79027,153.24894 C 310.79027,151.77299 310.79027,134.19623 310.79027,134.19623 C 310.79027,133.31242 310.15388,132.59368 309.36975,132.59368 L 291.06063,132.59448 L 291.06063,132.59448 z"
         enable-background="new    " />
      <path
         style="opacity:0.2;fill:#323232"
         id="path19"
         d="M 293.5683,133.54246 C 293.21334,133.54246 292.92526,133.90086 292.92526,134.34246 C 292.92526,134.34246 292.92526,152.68726 292.92526,154.16486 C 291.96777,154.16486 288.88376,154.16486 288.88376,154.16486 C 288.13204,154.16486 287.51987,154.92566 287.51987,155.86166 C 287.51987,155.86166 287.51987,159.68646 287.51987,160.31926 C 286.1219,161.64726 285.35797,163.21686 285.35797,164.89846 L 285.35797,197.57126 C 285.38627,201.97126 286.13734,206.28006 287.51987,210.06086 C 287.51987,210.32326 287.51987,212.34646 287.51987,212.34646 C 287.51987,219.21526 292.01085,224.80246 297.53134,224.80246 L 304.73917,224.80246 C 310.2603,224.80246 314.75129,219.21526 314.75129,212.34646 C 314.75129,212.34646 314.75129,210.32326 314.75129,210.06086 C 316.13318,206.27926 316.88425,201.97286 316.90997,197.57686 L 316.91318,190.57206 L 316.91318,164.89846 C 316.91318,163.21606 316.14925,161.64726 314.75129,160.31846 C 314.75129,159.68566 314.75129,155.86086 314.75129,155.86086 C 314.75129,154.92566 314.13976,154.16406 313.3874,154.16406 C 313.3874,154.16406 311.6139,154.16406 310.78759,154.16406 C 310.78759,152.68566 310.78759,134.34166 310.78759,134.34166 C 310.78759,133.90006 310.50016,133.54166 310.14455,133.54166 L 293.5683,133.54246 L 293.5683,133.54246 z"
         enable-background="new    " />
      <path
         style="fill:url(#radialGradient3935)"
         id="path30"
         d="M 301.13558,213.79046 C 299.14537,213.79046 297.53199,216.60086 297.53199,220.06726 C 297.53199,223.53366 299.14537,226.34246 301.13558,226.34246 C 303.12643,226.34246 304.73917,223.53206 304.73917,220.06566 C 304.73917,216.59926 303.12643,213.79046 301.13558,213.79046 z M 301.13558,225.44566 C 299.57299,225.44566 298.25283,222.98166 298.25283,220.06566 C 298.25283,217.14886 299.57364,214.68486 301.13558,214.68486 C 302.69752,214.68486 304.01768,217.14886 304.01768,220.06566 C 304.01832,222.98166 302.69816,225.44566 301.13558,225.44566 z" />
      <rect
         style="fill:url(#linearGradient3937)"
         id="rect37"
         height="21.5184"
         width="20.344225"
         y="133.54247"
         x="290.90857" />
      <path
         style="fill:url(#linearGradient3939)"
         id="path52"
         d="M 292.12386,134.34246 C 292.12386,135.76806 292.12386,152.83526 292.12386,154.26086 C 293.49264,154.26086 309.11199,154.26086 310.48077,154.26086 C 310.48077,152.83526 310.48077,135.76806 310.48077,134.34246 C 309.11122,134.34246 293.49264,134.34246 292.12386,134.34246 z" />
      <rect
         style="fill:url(#linearGradient3941)"
         id="rect59"
         height="3.5863998"
         width="4.3263578"
         y="141.61206"
         x="293.94812" />
      <path
         style="fill:#2e3436"
         id="path61"
         d="M 294.81278,142.50886 C 294.81278,143.18086 294.81278,143.62966 294.81278,144.30166 C 295.64346,144.30166 296.5776,144.30166 297.40828,144.30166 C 297.40828,143.62966 297.40828,143.18086 297.40828,142.50886 C 296.5776,142.50886 295.64346,142.50886 294.81278,142.50886 z" />
      <rect
         style="fill:url(#linearGradient3943)"
         id="rect68"
         height="3.5863998"
         width="4.3263578"
         y="141.61206"
         x="303.89859" />
      <path
         style="fill:#2e3436"
         id="path70"
         d="M 304.76324,142.50886 C 304.76324,143.18086 304.76324,143.62966 304.76324,144.30166 C 305.59393,144.30166 306.52884,144.30166 307.35875,144.30166 C 307.35875,143.62966 307.35875,143.18086 307.35875,142.50886 C 306.52884,142.50886 305.59393,142.50886 304.76324,142.50886 z" />
      <rect
         style="fill:url(#linearGradient3945)"
         id="rect77"
         height="1.7927999"
         width="0.86465389"
         y="142.50887"
         x="295.24588" />
      <rect
         style="fill:url(#linearGradient3947)"
         id="rect84"
         height="1.7927999"
         width="0.86542594"
         y="142.50887"
         x="306.06177" />
      <rect
         style="fill:#dddddd"
         id="rect86"
         height="20.7192"
         width="0.86542594"
         y="134.34245"
         x="292.21729" />
      <rect
         style="fill:#eeeeee"
         id="rect88"
         height="20.6224"
         width="0.86542594"
         y="134.43925"
         x="309.7381" />
      <path
         style="fill:#dccf2c;fill-opacity:1"
         id="path90"
         d="M 305.58734,157.10006 L 296.68382,157.10006 C 290.78458,157.10006 286.00101,160.23366 286.00101,164.09846 L 286.00101,183.93046 L 286.00101,189.77286 L 286.00101,196.77206 L 286.00423,196.77206 C 286.08075,210.15366 292.82494,220.96326 301.13558,220.96326 C 309.44621,220.96326 316.18976,210.15206 316.26693,196.77206 L 316.27014,196.77206 L 316.27014,189.77286 L 316.27014,183.93046 L 316.27014,164.09846 C 316.27014,160.23366 311.48658,157.10006 305.58734,157.10006 z" />
      <path
         style="fill:#f0f012;fill-opacity:1"
         id="path99"
         d="M 296.68382,157.90006 C 291.24178,157.90006 286.64405,160.73846 286.64405,164.09846 L 286.64405,196.77126 C 286.72122,209.66646 293.22105,220.16246 301.13558,220.16246 C 309.0501,220.16246 315.5493,209.66646 315.62389,196.76566 L 315.6271,189.77206 L 315.6271,164.09846 C 315.6271,160.73846 311.02938,157.89926 305.58734,157.89926 L 296.68382,157.90006 L 296.68382,157.90006 z" />
      <path
         style="fill:#faec32;fill-opacity:1"
         id="path106"
         d="M 296.68382,159.78966 C 291.56137,159.78966 288.16291,162.38326 288.16291,164.09846 L 288.16291,196.77126 C 288.23429,208.62086 294.05379,218.27286 301.13558,218.27286 C 308.21865,218.27286 314.03623,208.61846 314.10439,196.75286 C 314.10439,196.76566 314.10825,189.77126 314.10825,189.77126 L 314.10825,164.09846 C 314.10825,162.38246 310.70979,159.78966 305.58734,159.78966 L 296.68382,159.78966 L 296.68382,159.78966 z" />
      <path
         style="fill:url(#linearGradient3949)"
         id="path115"
         d="M 304.73917,154.16486 L 288.88376,154.16486 C 288.48507,154.16486 288.16291,154.56646 288.16291,155.06166 L 288.16291,161.66166 C 288.16291,161.82966 288.20085,161.99446 288.27158,162.13686 C 291.36203,168.29206 293.20691,178.88726 293.20691,190.47766 C 293.20691,202.06806 291.36203,201.00646 288.27158,207.16166 C 288.20085,207.30486 288.16291,207.46966 288.16291,207.63766 L 288.16291,211.54806 C 288.16291,217.97526 292.36581,223.20406 297.53134,223.20406 L 304.73917,223.20406 C 309.90534,223.20406 314.10825,217.97526 314.10825,211.54806 L 314.10825,207.63766 C 314.10825,207.46966 314.07031,207.30486 313.99829,207.16166 C 310.90784,201.00646 309.06296,202.06806 309.06296,190.47766 C 309.06296,178.88726 310.90784,168.29286 313.99829,162.13686 C 314.07031,161.99446 314.10825,161.82966 314.10825,161.66166 L 314.10825,155.06166 C 314.10825,154.56646 313.78608,154.16486 313.3874,154.16486 L 304.73917,154.16486 L 304.73917,154.16486 z" />
      <path
         style="fill:url(#linearGradient3951)"
         id="path122"
         d="M 288.88376,154.96486 C 288.84132,154.96486 288.80595,155.00806 288.80595,155.06166 L 288.80595,161.66166 C 291.96906,167.99046 293.85059,178.74326 293.85059,190.47766 C 293.85059,199.40886 292.73106,201.15446 290.87589,204.04646 C 290.2695,204.99206 289.58145,206.06326 288.81752,207.58646 L 288.80595,211.54806 C 288.80595,217.53366 292.72013,222.40406 297.53134,222.40406 L 304.73917,222.40406 C 309.55039,222.40406 313.46521,217.53366 313.46521,211.54806 L 313.46521,207.63766 C 312.68906,206.06406 312.00165,204.99206 311.39462,204.04646 C 309.53881,201.15446 308.41992,199.40886 308.41992,190.47766 C 308.41992,178.74406 310.30146,167.99046 313.45235,161.71286 L 313.46521,155.06166 C 313.46521,155.00886 313.42984,154.96486 313.3874,154.96486 L 288.88376,154.96486 L 288.88376,154.96486 z" />
      <path
         style="fill:url(#radialGradient3953)"
         id="path139"
         d="M 289.44899,155.76486 C 289.44899,156.84966 289.44899,161.12486 289.44899,161.46086 C 292.60759,167.92806 294.49363,178.73686 294.49363,190.47766 C 294.49363,199.68886 293.25449,201.62086 291.37875,204.54566 C 290.8103,205.43046 290.16533,206.45286 289.45992,207.83286 C 289.45863,208.26246 289.44899,211.54966 289.44899,211.54966 C 289.44899,217.09286 293.07508,221.60246 297.53134,221.60246 L 304.73917,221.60246 C 309.19736,221.60246 312.82217,217.09046 312.82217,211.54646 C 312.82217,211.54646 312.82217,208.30646 312.82217,207.87926 C 312.1084,206.45926 311.46278,205.43366 310.89498,204.54806 C 309.01602,201.61926 307.77688,199.68726 307.77688,190.47606 C 307.77688,178.72486 309.65906,167.93526 312.80995,161.50966 C 312.81059,161.17366 312.81895,156.85286 312.82088,155.76326 C 311.76566,155.76486 290.50293,155.76486 289.44899,155.76486 z" />
      <text
         transform="matrix(-1.1755553e-3,-0.9999993,0.9999993,-1.1755553e-3,0,0)"
         id="text3521"
         y="305.3598"
         x="-210.42859"
         style="font-size:31.99999809px;font-style:normal;font-weight:normal;fill:#000000;fill-opacity:1;stroke:none;stroke-width:1px;stroke-linecap:butt;stroke-linejoin:miter;stroke-opacity:1;font-family:Bitstream Vera Sans"
         xml:space="preserve"><tspan
           style="font-size:12.79999924px;font-style:normal;font-variant:normal;font-weight:normal;font-stretch:normal;font-family:Arial;-inkscape-font-specification:Arial"
           y="305.3598"
           x="-210.42859"
           id="tspan3523"
           sodipodi:role="line">lernstick</tspan></text>
    </g>
  </g>
  <g
     transform="translate(1,171.078)"
     style="fill:#ffffff;fill-rule:nonzero;stroke:#161413;stroke-width:1;stroke-linecap:butt;stroke-linejoin:miter;stroke-dasharray:none"
     id="g2998"
     inkscape:export-filename="/home/ronny/Dokumente/Lernstick/lernstick_fhnwkonform.png"
     inkscape:export-xdpi="422.09"
     inkscape:export-ydpi="422.09">
    <path
       d="M 0,0 C 0,0 0,170.079 0,170.079 C 0,170.079 170.078,170.079 170.078,170.079 C 76.1465,170.079 0,93.932 0,0 z"
       id="path3000" />
  </g>
  <g
     transform="translate(1,1)"
     style="fill:#ffffff;fill-rule:nonzero;stroke:#161413;stroke-width:1;stroke-linecap:butt;stroke-linejoin:miter;stroke-dasharray:none"
     id="g3002"
     inkscape:export-filename="/home/ronny/Dokumente/Lernstick/lernstick_fhnwkonform.png"
     inkscape:export-xdpi="422.09"
     inkscape:export-ydpi="422.09">
    <path
       d="M 170.078,0 C 170.078,0 0,0 0,0 C 0,0 0,170.078 0,170.078 C 0,76.1465 76.1465,0 170.078,0 z"
       id="path3004" />
  </g>
  <g
     transform="translate(171.078,1)"
     style="fill:#ffffff;fill-rule:nonzero;stroke:#161413;stroke-width:1;stroke-linecap:butt;stroke-linejoin:miter;stroke-dasharray:none"
     id="g3006"
     inkscape:export-filename="/home/ronny/Dokumente/Lernstick/lernstick_fhnwkonform.png"
     inkscape:export-xdpi="422.09"
     inkscape:export-ydpi="422.09">
    <path
       d="M 0,0 C 93.932,0 170.079,76.1465 170.079,170.078 C 170.079,170.078 170.079,0 170.079,0 C 170.079,0 0,0 0,0 z"
       id="path3008" />
  </g>
  <g
     transform="translate(171.078,171.078)"
     style="fill:#ffffff;fill-rule:nonzero;stroke:#161413;stroke-width:1;stroke-linecap:butt;stroke-linejoin:miter;stroke-dasharray:none"
     id="g3010"
     inkscape:export-filename="/home/ronny/Dokumente/Lernstick/lernstick_fhnwkonform.png"
     inkscape:export-xdpi="422.09"
     inkscape:export-ydpi="422.09">
    <path
       d="M 0,170.079 C 0,170.079 170.079,170.079 170.079,170.079 C 170.079,170.079 170.079,0 170.079,0 C 170.079,93.932 93.932,170.079 0,170.079 z"
       id="path3012" />
  </g>
  <text
     xml:space="preserve"
     style="font-size:40px;font-style:normal;font-weight:normal;line-height:125%;fill:#000000;fill-opacity:1;stroke:none;stroke-width:1px;stroke-linecap:butt;stroke-linejoin:miter;stroke-opacity:1;font-family:Bitstream Vera Sans"
     x="128.06494"
     y="25.909092"
     id="text5419"
     sodipodi:linespacing="125%"><tspan
       sodipodi:role="line"
       id="tspan5421"
       x="128.06494"
       y="25.909092"
       style="font-size:18px;font-style:normal;font-variant:normal;font-weight:bold;font-stretch:normal;text-align:start;line-height:125%;writing-mode:lr-tb;text-anchor:start;font-family:Calibri;-inkscape-font-specification:Calibri Bold" /></text>
  <text
     xml:space="preserve"
     style="font-size:40px;font-style:normal;font-weight:normal;fill:#000000;fill-opacity:1;stroke:none;stroke-width:1px;stroke-linecap:butt;stroke-linejoin:miter;stroke-opacity:1;font-family:Bitstream Vera Sans"
     x="159.8961"
     y="62.181816"
     id="text5423"><tspan
       sodipodi:role="line"
       id="tspan5425"
       x="159.8961"
       y="62.181816" /></text>
  <text
     xml:space="preserve"
     style="font-size:40px;font-style:normal;font-weight:normal;fill:#000000;fill-opacity:1;stroke:none;stroke-width:1px;stroke-linecap:butt;stroke-linejoin:miter;stroke-opacity:1;font-family:Bitstream Vera Sans"
     x="160.63635"
     y="64.402596"
     id="text5427"><tspan
       sodipodi:role="line"
       id="tspan5429"
       x="160.63635"
       y="64.402596" /></text>
  <text
     xml:space="preserve"
     style="font-size:40px;font-style:normal;font-weight:normal;fill:#000000;fill-opacity:1;stroke:none;stroke-width:1px;stroke-linecap:butt;stroke-linejoin:miter;stroke-opacity:1;font-family:Bitstream Vera Sans"
     x="167.29871"
     y="61.441559"
     id="text5431"><tspan
       sodipodi:role="line"
       id="tspan5433"
       x="167.29871"
       y="61.441559" /></text>
  <g
     inkscape:groupmode="layer"
     id="layer3"
     inkscape:label="dvd"
     sodipodi:insensitive="true" />
  <g
     inkscape:groupmode="layer"
     id="layer2"
     inkscape:label="innenkreis"
     style="display:none"
     sodipodi:insensitive="true">
    <g
       transform="translate(116.512,116.512)"
       style="fill:#ffffff;fill-rule:nonzero;stroke:#161413;stroke-width:1;stroke-linecap:butt;stroke-linejoin:miter;stroke-dasharray:none"
       id="g3014">
      <path
         d="M 109.134,54.567 C 109.134,84.703 84.703,109.134 54.567,109.134 C 24.43,109.134 0,84.703 0,54.567 C 0,24.43 24.43,0 54.567,0 C 84.703,0 109.134,24.43 109.134,54.567 z"
         id="path3016" />
    </g>
  </g>
  <g
     inkscape:groupmode="layer"
     id="layer6">
    <g
       id="g2878"
       transform="matrix(0.1121268,0,0,-0.1130572,65.369315,79.610886)"
       inkscape:export-filename="/home/ronny/Dokumente/Lernstick/lernstick_fhnwkonform.png"
       inkscape:export-xdpi="422.09"
       inkscape:export-ydpi="422.09">
      <path
         d="M 615.938,159.906 L 615.938,215.168 L 648.699,215.168 L 648.699,208.586 L 623.594,208.586 L 623.594,191.211 L 647.234,191.211 L 647.234,184.629 L 623.594,184.629 L 623.594,159.906 L 615.938,159.906"
         style="fill:#231f20;fill-opacity:1;fill-rule:nonzero;stroke:none"
         id="path2880" />
      <path
         d="M 677.93,183.633 C 677.93,190.293 677.551,194.195 669.812,194.195 C 666.145,194.195 662.707,192.051 662.629,188.074 L 654.973,188.074 C 655.352,196.496 661.934,199.477 669.512,199.477 C 677.395,199.477 685.207,197.105 685.207,186.387 L 685.207,168.023 C 685.207,166.34 685.281,163.125 685.508,159.906 L 680.613,159.906 C 679.922,159.906 678.625,159.527 678.547,160.445 C 678.391,162.207 678.23,163.887 678.164,165.645 L 678.008,165.645 C 675.637,160.824 671.348,158.762 666.062,158.762 C 659.402,158.762 652.676,162.207 652.676,169.703 C 652.676,180.5 662.234,183.633 671.348,183.633 L 677.93,183.633 z M 670.652,178.586 C 666.223,178.355 660.32,176.75 660.32,171.164 C 660.32,166.418 663.625,164.043 667.898,164.043 C 676.477,164.043 678.086,171.465 677.93,178.586 L 670.652,178.586"
         style="fill:#231f20;fill-opacity:1;fill-rule:nonzero;stroke:none"
         id="path2882" />
      <path
         d="M 720.105,186.008 C 719.719,190.832 717.422,194.195 712.219,194.195 C 705.254,194.195 702.578,188.145 702.578,179.121 C 702.578,170.09 705.254,164.043 712.219,164.043 C 717.043,164.043 720.027,167.18 720.41,172.691 L 727.676,172.691 C 727.062,164.043 720.637,158.762 712.141,158.762 C 699.824,158.762 694.922,167.48 694.922,178.812 C 694.922,190.059 700.586,199.477 712.754,199.477 C 720.871,199.477 726.992,194.352 727.375,186.008 L 720.105,186.008"
         style="fill:#231f20;fill-opacity:1;fill-rule:nonzero;stroke:none"
         id="path2884" />
      <path
         d="M 737.859,159.906 L 737.859,215.168 L 745.129,215.168 L 745.129,193.203 L 745.281,193.203 C 748.039,197.488 752.18,199.477 757.766,199.477 C 767.781,199.477 770.93,192.82 770.93,185.93 L 770.93,159.906 L 763.652,159.906 L 763.652,182.637 C 763.652,189.375 761.887,193.738 755.09,193.887 C 752.18,193.965 747.734,191.75 746.355,188.531 C 744.668,184.551 745.129,181.797 745.129,179.652 L 745.129,159.906 L 737.859,159.906"
         style="fill:#231f20;fill-opacity:1;fill-rule:nonzero;stroke:none"
         id="path2886" />
      <path
         d="M 784.238,159.906 L 784.238,215.168 L 791.516,215.168 L 791.516,193.203 L 791.66,193.203 C 794.426,197.488 798.547,199.477 804.133,199.477 C 814.172,199.477 817.297,192.82 817.297,185.93 L 817.297,159.906 L 810.027,159.906 L 810.027,182.637 C 810.027,189.375 808.27,193.738 801.457,193.887 C 798.547,193.965 794.109,191.75 792.734,188.531 C 791.047,184.551 791.516,181.797 791.516,179.652 L 791.516,159.906 L 784.238,159.906"
         style="fill:#231f20;fill-opacity:1;fill-rule:nonzero;stroke:none"
         id="path2888" />
      <path
         d="M 864.363,179.121 C 864.363,167.18 857.859,158.762 845.234,158.762 C 832.605,158.762 826.105,167.18 826.105,179.121 C 826.105,191.055 832.605,199.477 845.234,199.477 C 857.859,199.477 864.363,191.055 864.363,179.121 z M 845.234,164.043 C 853.879,164.043 856.711,170.93 856.711,179.121 C 856.711,187.305 853.879,194.195 845.234,194.195 C 836.594,194.195 833.762,187.305 833.762,179.121 C 833.762,170.93 836.594,164.043 845.234,164.043"
         style="fill:#231f20;fill-opacity:1;fill-rule:nonzero;stroke:none"
         id="path2890" />
      <path
         d="M 896.75,186.008 C 896.355,190.832 894.07,194.195 888.855,194.195 C 881.895,194.195 879.219,188.145 879.219,179.121 C 879.219,170.09 881.895,164.043 888.855,164.043 C 893.684,164.043 896.672,167.18 897.051,172.691 L 904.324,172.691 C 903.711,164.043 897.273,158.762 888.777,158.762 C 876.465,158.762 871.57,167.48 871.57,178.812 C 871.57,190.059 877.227,199.477 889.402,199.477 C 897.512,199.477 903.633,194.352 904.016,186.008 L 896.75,186.008"
         style="fill:#231f20;fill-opacity:1;fill-rule:nonzero;stroke:none"
         id="path2892" />
      <path
         d="M 914.504,159.906 L 914.504,215.168 L 921.77,215.168 L 921.77,193.203 L 921.926,193.203 C 924.68,197.488 928.816,199.477 934.402,199.477 C 944.426,199.477 947.566,192.82 947.566,185.93 L 947.566,159.906 L 940.293,159.906 L 940.293,182.637 C 940.293,189.375 938.535,193.738 931.719,193.887 C 928.816,193.965 924.375,191.75 923,188.531 C 921.316,184.551 921.77,181.797 921.77,179.652 L 921.77,159.906 L 914.504,159.906"
         style="fill:#231f20;fill-opacity:1;fill-rule:nonzero;stroke:none"
         id="path2894" />
      <path
         d="M 972.355,199.477 C 979.629,199.477 987.82,196.418 987.285,187.691 L 979.629,187.691 C 979.934,192.59 976.184,194.195 971.98,194.195 C 968.074,194.195 964.934,192.359 964.934,188.074 C 964.934,183.789 971.516,183.48 974.27,182.637 C 980.781,180.5 988.281,179.73 988.281,171.086 C 988.281,161.672 979.094,158.762 971.211,158.762 C 963.176,158.762 956.438,162.434 956.516,171.309 L 964.172,171.309 C 964.324,166.562 967.539,164.043 971.98,164.043 C 976.262,164.043 980.625,165.723 980.625,170.699 C 980.625,179.273 957.285,172.844 957.285,187.844 C 957.285,195.879 965.398,199.477 972.355,199.477"
         style="fill:#231f20;fill-opacity:1;fill-rule:nonzero;stroke:none"
         id="path2896" />
      <path
         d="M 1020.42,186.008 C 1020.05,190.832 1017.75,194.195 1012.54,194.195 C 1005.57,194.195 1002.9,188.145 1002.9,179.121 C 1002.9,170.09 1005.57,164.043 1012.54,164.043 C 1017.36,164.043 1020.35,167.18 1020.73,172.691 L 1028,172.691 C 1027.39,164.043 1020.97,158.762 1012.46,158.762 C 1000.14,158.762 995.246,167.48 995.246,178.812 C 995.246,190.059 1000.91,199.477 1013.07,199.477 C 1021.19,199.477 1027.31,194.352 1027.7,186.008 L 1020.42,186.008"
         style="fill:#231f20;fill-opacity:1;fill-rule:nonzero;stroke:none"
         id="path2898" />
      <path
         d="M 1038.18,159.906 L 1038.18,215.168 L 1045.45,215.168 L 1045.45,193.203 L 1045.61,193.203 C 1048.36,197.488 1052.49,199.477 1058.07,199.477 C 1068.11,199.477 1071.24,192.82 1071.24,185.93 L 1071.24,159.906 L 1063.98,159.906 L 1063.98,182.637 C 1063.98,189.375 1062.22,193.738 1055.4,193.887 C 1052.49,193.965 1048.06,191.75 1046.67,188.531 C 1044.99,184.551 1045.45,181.797 1045.45,179.652 L 1045.45,159.906 L 1038.18,159.906"
         style="fill:#231f20;fill-opacity:1;fill-rule:nonzero;stroke:none"
         id="path2900" />
      <path
         d="M 1108.82,198.332 L 1116.09,198.332 L 1116.09,159.906 L 1108.98,159.906 L 1108.98,165.57 L 1108.82,165.57 C 1105.91,160.754 1101.02,158.762 1095.65,158.762 C 1087.63,158.762 1083.03,164.883 1083.03,172.613 L 1083.03,198.332 L 1090.3,198.332 L 1090.3,175.602 C 1090.3,168.941 1091.84,164.043 1098.8,164.043 C 1101.79,164.043 1105.84,165.57 1107.38,169.551 C 1108.74,173.145 1108.82,177.668 1108.82,178.586 L 1108.82,198.332"
         style="fill:#231f20;fill-opacity:1;fill-rule:nonzero;stroke:none"
         id="path2902" />
      <path
         d="M 1128.04,159.906 L 1135.3056,159.906 L 1135.3056,215.1677 L 1128.04,215.1677 L 1128.04,159.906 z"
         style="fill:#231f20;fill-opacity:1;fill-rule:nonzero;stroke:none"
         id="path2904" />
      <path
         d="M 1153.45,177.746 C 1152.91,171.008 1155.66,164.043 1163.09,164.043 C 1168.74,164.043 1171.57,166.262 1172.41,171.852 L 1180.07,171.852 C 1178.94,163.125 1172.2,158.762 1163.01,158.762 C 1150.69,158.762 1145.79,167.48 1145.79,178.812 C 1145.79,190.059 1151.46,199.477 1163.62,199.477 C 1175.11,199.25 1180.54,191.973 1180.54,181.34 L 1180.54,177.746 L 1153.45,177.746 z M 1172.88,182.793 C 1173.04,189.219 1170.13,194.195 1163.09,194.195 C 1157.04,194.195 1153.45,189.062 1153.45,182.793 L 1172.88,182.793"
         style="fill:#231f20;fill-opacity:1;fill-rule:nonzero;stroke:none"
         id="path2906" />
      <path
         d="M 1253.86,215.168 L 1253.86,159.906 L 1244.36,159.906 L 1216.44,206.824 L 1216.28,206.824 L 1216.28,159.906 L 1209.46,159.906 L 1209.46,215.168 L 1219.95,215.168 L 1246.89,169.473 L 1247.04,169.473 L 1247.04,215.168 L 1253.86,215.168"
         style="fill:#231f20;fill-opacity:1;fill-rule:nonzero;stroke:none"
         id="path2908" />
      <path
         d="M 1302.84,179.121 C 1302.84,167.18 1296.34,158.762 1283.7,158.762 C 1271.09,158.762 1264.58,167.18 1264.58,179.121 C 1264.58,191.055 1271.09,199.477 1283.7,199.477 C 1296.34,199.477 1302.84,191.055 1302.84,179.121 z M 1283.7,164.043 C 1292.36,164.043 1295.19,170.93 1295.19,179.121 C 1295.19,187.305 1292.36,194.195 1283.7,194.195 C 1275.06,194.195 1272.23,187.305 1272.23,179.121 C 1272.23,170.93 1275.06,164.043 1283.7,164.043"
         style="fill:#231f20;fill-opacity:1;fill-rule:nonzero;stroke:none"
         id="path2910" />
      <path
         d="M 1319.52,159.906 L 1312.26,159.906 L 1312.26,198.332 L 1319.52,198.332 L 1319.52,190.906 L 1319.68,190.906 C 1320.75,196.188 1325.65,198.867 1330.93,198.867 C 1331.85,198.867 1332.61,198.789 1333.45,198.789 L 1333.45,191.902 C 1332.45,192.281 1331.31,192.281 1330.31,192.281 C 1321.12,191.973 1319.52,187.082 1319.52,178.965 L 1319.52,159.906"
         style="fill:#231f20;fill-opacity:1;fill-rule:nonzero;stroke:none"
         id="path2912" />
      <path
         d="M 1365.68,215.168 L 1372.94,215.168 L 1372.94,166.719 C 1372.94,164.426 1373.18,162.129 1373.33,159.906 L 1365.91,159.906 L 1365.68,165.645 L 1365.68,166.031 L 1365.52,166.031 C 1362.92,160.676 1357.86,158.762 1352.27,158.762 C 1340.87,158.762 1336.36,169.25 1336.36,179.121 C 1336.36,189.527 1341.64,199.477 1353.59,199.477 C 1358.48,199.477 1363.3,197.715 1365.52,193.125 L 1365.68,193.125 L 1365.68,215.168 z M 1354.88,163.809 C 1363.68,163.809 1365.75,172.004 1365.75,179.195 C 1365.75,186.164 1363.14,194.43 1354.88,194.43 C 1346.16,194.43 1344.02,186.387 1344.02,179.195 C 1344.02,172.004 1346.69,163.809 1354.88,163.809"
         style="fill:#231f20;fill-opacity:1;fill-rule:nonzero;stroke:none"
         id="path2914" />
      <path
         d="M 1441.9,198.332 L 1428.35,159.906 L 1420.09,159.906 L 1411.13,191.52 L 1410.98,191.52 L 1401.02,159.906 L 1392.54,159.906 L 1379.84,198.332 L 1387.71,198.332 L 1396.97,167.406 L 1397.13,167.406 L 1406.69,198.332 L 1416.11,198.332 L 1424.76,168.023 L 1424.91,168.023 L 1434.48,198.332 L 1441.9,198.332"
         style="fill:#231f20;fill-opacity:1;fill-rule:nonzero;stroke:none"
         id="path2916" />
      <path
         d="M 1453.92,177.746 C 1453.38,171.008 1456.13,164.043 1463.56,164.043 C 1469.23,164.043 1472.06,166.262 1472.9,171.852 L 1480.55,171.852 C 1479.4,163.125 1472.67,158.762 1463.48,158.762 C 1451.16,158.762 1446.26,167.48 1446.26,178.812 C 1446.26,190.059 1451.93,199.477 1464.09,199.477 C 1475.57,199.25 1481.01,191.973 1481.01,181.34 L 1481.01,177.746 L 1453.92,177.746 z M 1473.36,182.793 C 1473.51,189.219 1470.6,194.195 1463.56,194.195 C 1457.51,194.195 1453.92,189.062 1453.92,182.793 L 1473.36,182.793"
         style="fill:#231f20;fill-opacity:1;fill-rule:nonzero;stroke:none"
         id="path2918" />
      <path
         d="M 1504.05,199.477 C 1511.32,199.477 1519.5,196.418 1518.98,187.691 L 1511.32,187.691 C 1511.62,192.59 1507.88,194.195 1503.66,194.195 C 1499.76,194.195 1496.62,192.359 1496.62,188.074 C 1496.62,183.789 1503.2,183.48 1505.97,182.637 C 1512.47,180.5 1519.97,179.73 1519.97,171.086 C 1519.97,161.672 1510.78,158.762 1502.9,158.762 C 1494.86,158.762 1488.14,162.434 1488.2,171.309 L 1495.86,171.309 C 1496.01,166.562 1499.23,164.043 1503.66,164.043 C 1507.95,164.043 1512.31,165.723 1512.31,170.699 C 1512.31,179.273 1488.98,172.844 1488.98,187.844 C 1488.98,195.879 1497.08,199.477 1504.05,199.477"
         style="fill:#231f20;fill-opacity:1;fill-rule:nonzero;stroke:none"
         id="path2920" />
      <path
         d="M 1532.36,198.332 L 1532.36,206.52 L 1539.64,208.809 L 1539.64,198.332 L 1548.52,198.559 L 1548.52,193.125 L 1539.64,193.203 L 1539.64,168.398 C 1539.64,165.645 1541.79,164.348 1544.39,164.348 C 1545.54,164.348 1547.06,164.504 1548.21,164.805 L 1548.21,159.219 C 1546.52,159.141 1544.92,158.762 1543.23,158.762 C 1541.48,158.762 1540.1,158.84 1538.34,159.141 C 1537.19,159.375 1535.27,159.984 1534.05,161.672 C 1532.75,163.508 1532.36,163.656 1532.36,168.785 L 1532.36,193.203 L 1525.79,193.125 L 1525.79,198.559 L 1532.36,198.332"
         style="fill:#231f20;fill-opacity:1;fill-rule:nonzero;stroke:none"
         id="path2922" />
      <path
         d="M 1570.48,199.477 C 1577.75,199.477 1585.95,196.418 1585.4,187.691 L 1577.75,187.691 C 1578.06,192.59 1574.31,194.195 1570.1,194.195 C 1566.2,194.195 1563.06,192.359 1563.06,188.074 C 1563.06,183.789 1569.64,183.48 1572.39,182.637 C 1578.89,180.5 1586.39,179.73 1586.39,171.086 C 1586.39,161.672 1577.22,158.762 1569.32,158.762 C 1561.3,158.762 1554.56,162.434 1554.64,171.309 L 1562.3,171.309 C 1562.45,166.562 1565.65,164.043 1570.1,164.043 C 1574.39,164.043 1578.74,165.723 1578.74,170.699 C 1578.74,179.273 1555.4,172.844 1555.4,187.844 C 1555.4,195.879 1563.52,199.477 1570.48,199.477"
         style="fill:#231f20;fill-opacity:1;fill-rule:nonzero;stroke:none"
         id="path2924" />
      <path
         d="M 1618.55,186.008 C 1618.15,190.832 1615.87,194.195 1610.66,194.195 C 1603.7,194.195 1601.02,188.145 1601.02,179.121 C 1601.02,170.09 1603.7,164.043 1610.66,164.043 C 1615.48,164.043 1618.47,167.18 1618.86,172.691 L 1626.12,172.691 C 1625.51,164.043 1619.07,158.762 1610.59,158.762 C 1598.27,158.762 1593.37,167.48 1593.37,178.812 C 1593.37,190.059 1599.03,199.477 1611.2,199.477 C 1619.31,199.477 1625.43,194.352 1625.81,186.008 L 1618.55,186.008"
         style="fill:#231f20;fill-opacity:1;fill-rule:nonzero;stroke:none"
         id="path2926" />
      <path
         d="M 1635.92,159.906 L 1635.92,215.168 L 1643.19,215.168 L 1643.19,193.203 L 1643.34,193.203 C 1646.09,197.488 1650.23,199.477 1655.81,199.477 C 1665.84,199.477 1668.98,192.82 1668.98,185.93 L 1668.98,159.906 L 1661.71,159.906 L 1661.71,182.637 C 1661.71,189.375 1659.95,193.738 1653.14,193.887 C 1650.23,193.965 1645.79,191.75 1644.4,188.531 C 1642.73,184.551 1643.19,181.797 1643.19,179.652 L 1643.19,159.906 L 1635.92,159.906"
         style="fill:#231f20;fill-opacity:1;fill-rule:nonzero;stroke:none"
         id="path2928" />
      <path
         d="M 1736.79,198.332 L 1723.24,159.906 L 1714.97,159.906 L 1706.02,191.52 L 1705.87,191.52 L 1695.93,159.906 L 1687.43,159.906 L 1674.72,198.332 L 1682.61,198.332 L 1691.86,167.406 L 1692.02,167.406 L 1701.59,198.332 L 1711.01,198.332 L 1719.65,168.023 L 1719.8,168.023 L 1729.36,198.332 L 1736.79,198.332"
         style="fill:#231f20;fill-opacity:1;fill-rule:nonzero;stroke:none"
         id="path2930" />
      <path
         d="M 1748.81,177.746 C 1748.27,171.008 1751.02,164.043 1758.45,164.043 C 1764.11,164.043 1766.94,166.262 1767.78,171.852 L 1775.44,171.852 C 1774.29,163.125 1767.56,158.762 1758.37,158.762 C 1746.05,158.762 1741.15,167.48 1741.15,178.812 C 1741.15,190.059 1746.82,199.477 1758.98,199.477 C 1770.47,199.25 1775.9,191.973 1775.9,181.34 L 1775.9,177.746 L 1748.81,177.746 z M 1768.25,182.793 C 1768.4,189.219 1765.5,194.195 1758.45,194.195 C 1752.4,194.195 1748.81,189.062 1748.81,182.793 L 1768.25,182.793"
         style="fill:#231f20;fill-opacity:1;fill-rule:nonzero;stroke:none"
         id="path2932" />
      <path
         d="M 1784.63,215.168 L 1793.27,215.168 L 1793.27,207.281 L 1784.63,207.281 L 1784.63,215.168 z M 1785.31,159.906 L 1785.31,198.332 L 1792.59,198.332 L 1792.59,159.906 L 1785.31,159.906"
         style="fill:#231f20;fill-opacity:1;fill-rule:nonzero;stroke:none"
         id="path2934" />
      <path
         d="M 1831.31,159.906 L 1803.38,159.906 L 1803.38,164.961 L 1822.75,193.277 L 1803.68,193.277 L 1803.68,198.332 L 1830.55,198.332 L 1830.55,193.277 L 1811.26,164.961 L 1831.31,164.961 L 1831.31,159.906"
         style="fill:#231f20;fill-opacity:1;fill-rule:nonzero;stroke:none"
         id="path2936" />
      <path
         d="M 615.906,128.73 L 634.426,128.73 C 644.68,129.18 653.562,125.359 653.562,113.262 C 653.562,101.711 644.148,98.0391 633.977,97.8125 L 623.562,97.8125 L 623.562,73.4688 L 615.906,73.4688 L 615.906,128.73 z M 635.574,104.395 C 636.496,104.395 645.527,103.926 645.527,113.262 C 645.527,122.605 636.496,122.148 635.574,122.148 L 623.562,122.148 L 623.562,104.395 L 635.574,104.395"
         style="fill:#231f20;fill-opacity:1;fill-rule:nonzero;stroke:none"
         id="path2938" />
      <path
         d="M 682.961,97.1953 C 682.961,103.848 682.566,107.754 674.844,107.754 C 671.164,107.754 667.727,105.613 667.645,101.641 L 659.988,101.641 C 660.383,110.051 666.965,113.039 674.543,113.039 C 682.414,113.039 690.227,110.664 690.227,99.9492 L 690.227,81.582 C 690.227,79.9023 690.305,76.6797 690.527,73.4688 L 685.637,73.4688 C 684.949,73.4688 683.645,73.0859 683.562,74.0039 C 683.406,75.7617 683.254,77.4492 683.184,79.2109 L 683.039,79.2109 C 680.652,74.3867 676.379,72.3242 671.086,72.3242 C 664.426,72.3242 657.707,75.7617 657.707,83.2617 C 657.707,94.0547 667.258,97.1953 676.379,97.1953 L 682.961,97.1953 z M 664.133,120.918 L 664.133,128.73 L 671.086,128.73 L 671.086,120.918 L 664.133,120.918 z M 675.684,92.1406 C 671.238,91.9141 665.344,90.3047 665.344,84.7188 C 665.344,79.9805 668.645,77.5977 672.93,77.5977 C 681.496,77.5977 683.113,85.0195 682.961,92.1406 L 675.684,92.1406 z M 678.516,120.918 L 678.516,128.73 L 685.48,128.73 L 685.48,120.918 L 678.516,120.918"
         style="fill:#231f20;fill-opacity:1;fill-rule:nonzero;stroke:none"
         id="path2940" />
      <path
         d="M 728.484,128.73 L 735.762,128.73 L 735.762,80.2812 C 735.762,77.9883 735.984,75.6836 736.145,73.4688 L 728.723,73.4688 L 728.484,79.2109 L 728.484,79.5898 L 728.34,79.5898 C 725.73,74.2383 720.684,72.3242 715.098,72.3242 C 703.699,72.3242 699.18,82.8125 699.18,92.6758 C 699.18,103.086 704.465,113.039 716.395,113.039 C 721.301,113.039 726.125,111.27 728.34,106.68 L 728.484,106.68 L 728.484,128.73 z M 717.707,77.375 C 726.504,77.375 728.562,85.5664 728.562,92.7539 C 728.562,99.7266 725.969,107.988 717.707,107.988 C 708.977,107.988 706.824,99.9492 706.824,92.7539 C 706.824,85.5664 709.512,77.375 717.707,77.375"
         style="fill:#231f20;fill-opacity:1;fill-rule:nonzero;stroke:none"
         id="path2942" />
      <path
         d="M 769.973,97.1953 C 769.973,103.848 769.59,107.754 761.863,107.754 C 758.184,107.754 754.734,105.613 754.656,101.641 L 747.012,101.641 C 747.395,110.051 753.977,113.039 761.555,113.039 C 769.441,113.039 777.234,110.664 777.234,99.9492 L 777.234,81.582 C 777.234,79.9023 777.312,76.6797 777.551,73.4688 L 772.645,73.4688 C 771.965,73.4688 770.664,73.0859 770.586,74.0039 C 770.438,75.7617 770.281,77.4492 770.207,79.2109 L 770.051,79.2109 C 767.676,74.3867 763.391,72.3242 758.113,72.3242 C 751.457,72.3242 744.719,75.7617 744.719,83.2617 C 744.719,94.0547 754.289,97.1953 763.391,97.1953 L 769.973,97.1953 z M 762.707,92.1406 C 758.262,91.9141 752.375,90.3047 752.375,84.7188 C 752.375,79.9805 755.652,77.5977 759.949,77.5977 C 768.523,77.5977 770.129,85.0195 769.973,92.1406 L 762.707,92.1406"
         style="fill:#231f20;fill-opacity:1;fill-rule:nonzero;stroke:none"
         id="path2944" />
      <path
         d="M 815.438,111.887 L 822.938,111.887 C 822.707,109.59 822.473,107.297 822.473,105 L 822.473,77.9883 C 822.473,63.9062 816.355,58.1641 802.273,58.1641 C 794.004,58.1641 788.113,61.6797 788.039,70.5586 L 795.691,70.5586 C 795.996,65.4297 799.512,63.4375 804.641,63.4375 C 814.973,63.4375 814.973,72.0117 815.207,80.6641 L 814.973,80.6641 C 812.688,76.0742 807.102,74.1602 802.355,74.1602 C 790.637,74.1602 785.969,82.4219 785.969,93.2148 C 785.969,104.316 792.168,113.039 803.801,113.039 C 807.551,113.039 811.688,111.504 814.055,107.988 C 814.211,107.832 815.207,105.613 815.207,106.152 L 815.438,111.887 z M 804.414,79.4336 C 812.297,79.4336 815.207,86.1719 815.207,93.5938 C 815.207,101.023 812.297,107.754 804.414,107.754 C 795.918,107.754 793.625,99.6484 793.625,93.5938 C 793.625,87.5508 795.918,79.4336 804.414,79.4336"
         style="fill:#231f20;fill-opacity:1;fill-rule:nonzero;stroke:none"
         id="path2946" />
      <path
         d="M 869.094,92.6758 C 869.094,80.7422 862.59,72.3242 849.949,72.3242 C 837.324,72.3242 830.82,80.7422 830.82,92.6758 C 830.82,104.621 837.324,113.039 849.949,113.039 C 862.59,113.039 869.094,104.621 869.094,92.6758 z M 849.949,77.5977 C 858.605,77.5977 861.438,84.4922 861.438,92.6758 C 861.438,100.871 858.605,107.754 849.949,107.754 C 841.301,107.754 838.469,100.871 838.469,92.6758 C 838.469,84.4922 841.301,77.5977 849.949,77.5977"
         style="fill:#231f20;fill-opacity:1;fill-rule:nonzero;stroke:none"
         id="path2948" />
      <path
         d="M 905.52,111.887 L 913.02,111.887 C 912.781,109.59 912.551,107.297 912.551,105 L 912.551,77.9883 C 912.551,63.9062 906.438,58.1641 892.355,58.1641 C 884.094,58.1641 878.191,61.6797 878.113,70.5586 L 885.77,70.5586 C 886.086,65.4297 889.602,63.4375 894.719,63.4375 C 905.059,63.4375 905.059,72.0117 905.281,80.6641 L 905.059,80.6641 C 902.766,76.0742 897.18,74.1602 892.434,74.1602 C 880.715,74.1602 876.047,82.4219 876.047,93.2148 C 876.047,104.316 882.258,113.039 893.879,113.039 C 897.629,113.039 901.77,111.504 904.141,107.988 C 904.289,107.832 905.281,105.613 905.281,106.152 L 905.52,111.887 z M 894.492,79.4336 C 902.375,79.4336 905.281,86.1719 905.281,93.5938 C 905.281,101.023 902.375,107.754 894.492,107.754 C 886.008,107.754 883.699,99.6484 883.699,93.5938 C 883.699,87.5508 886.008,79.4336 894.492,79.4336"
         style="fill:#231f20;fill-opacity:1;fill-rule:nonzero;stroke:none"
         id="path2950" />
      <path
         d="M 924.109,128.73 L 932.766,128.73 L 932.766,120.84 L 924.109,120.84 L 924.109,128.73 z M 924.805,73.4688 L 924.805,111.887 L 932.07,111.887 L 932.07,73.4688 L 924.805,73.4688"
         style="fill:#231f20;fill-opacity:1;fill-rule:nonzero;stroke:none"
         id="path2952" />
      <path
         d="M 957.02,113.039 C 964.297,113.039 972.488,109.973 971.941,101.25 L 964.297,101.25 C 964.602,106.152 960.852,107.754 956.641,107.754 C 952.746,107.754 949.602,105.918 949.602,101.641 C 949.602,97.3438 956.184,97.043 958.938,96.1992 C 965.438,94.0547 972.938,93.293 972.938,84.6484 C 972.938,75.2266 963.762,72.3242 955.879,72.3242 C 947.844,72.3242 941.105,75.9961 941.184,84.875 L 948.84,84.875 C 948.984,80.1289 952.195,77.5977 956.641,77.5977 C 960.93,77.5977 965.293,79.2891 965.293,84.2578 C 965.293,92.832 941.941,86.4062 941.941,101.406 C 941.941,109.434 950.059,113.039 957.02,113.039"
         style="fill:#231f20;fill-opacity:1;fill-rule:nonzero;stroke:none"
         id="path2954" />
      <path
         d="M 1003.55,99.5703 C 1003.18,104.395 1000.88,107.754 995.676,107.754 C 988.711,107.754 986.023,101.711 986.023,92.6758 C 986.023,83.6523 988.711,77.5977 995.676,77.5977 C 1000.5,77.5977 1003.48,80.7422 1003.86,86.25 L 1011.13,86.25 C 1010.52,77.5977 1004.09,72.3242 995.598,72.3242 C 983.27,72.3242 978.379,81.0469 978.379,92.375 C 978.379,103.625 984.043,113.039 996.211,113.039 C 1004.32,113.039 1010.44,107.91 1010.83,99.5703 L 1003.55,99.5703"
         style="fill:#231f20;fill-opacity:1;fill-rule:nonzero;stroke:none"
         id="path2956" />
      <path
         d="M 1019.4,73.4688 L 1019.4,128.73 L 1026.67,128.73 L 1026.67,106.758 L 1026.82,106.758 C 1029.58,111.047 1033.72,113.039 1039.31,113.039 C 1049.32,113.039 1052.47,106.379 1052.47,99.4922 L 1052.47,73.4688 L 1045.2,73.4688 L 1045.2,96.1992 C 1045.2,102.93 1043.43,107.297 1036.62,107.449 C 1033.72,107.52 1029.28,105.312 1027.9,102.09 C 1026.21,98.1133 1026.67,95.3516 1026.67,93.2148 L 1026.67,73.4688 L 1019.4,73.4688"
         style="fill:#231f20;fill-opacity:1;fill-rule:nonzero;stroke:none"
         id="path2958" />
      <path
         d="M 1069.68,91.3008 C 1069.15,84.5703 1071.9,77.5977 1079.32,77.5977 C 1084.99,77.5977 1087.82,79.8242 1088.66,85.4102 L 1096.32,85.4102 C 1095.17,76.6797 1088.44,72.3242 1079.25,72.3242 C 1066.93,72.3242 1062.03,81.0469 1062.03,92.375 C 1062.03,103.625 1067.7,113.039 1079.86,113.039 C 1091.34,112.812 1096.78,105.539 1096.78,94.9023 L 1096.78,91.3008 L 1069.68,91.3008 z M 1089.12,96.3477 C 1089.28,102.781 1086.37,107.754 1079.32,107.754 C 1073.28,107.754 1069.68,102.629 1069.68,96.3477 L 1089.12,96.3477"
         style="fill:#231f20;fill-opacity:1;fill-rule:nonzero;stroke:none"
         id="path2960" />
      <path
         d="M 1126.55,73.4688 L 1126.55,128.73 L 1134.21,128.73 L 1134.21,105 L 1160.46,105 L 1160.46,128.73 L 1168.11,128.73 L 1168.11,73.4688 L 1160.46,73.4688 L 1160.46,98.418 L 1134.21,98.418 L 1134.21,73.4688 L 1126.55,73.4688"
         style="fill:#231f20;fill-opacity:1;fill-rule:nonzero;stroke:none"
         id="path2962" />
      <path
         d="M 1216.32,92.6758 C 1216.32,80.7422 1209.81,72.3242 1197.2,72.3242 C 1184.56,72.3242 1178.06,80.7422 1178.06,92.6758 C 1178.06,104.621 1184.56,113.039 1197.2,113.039 C 1209.81,113.039 1216.32,104.621 1216.32,92.6758 z M 1197.2,77.5977 C 1205.83,77.5977 1208.66,84.4922 1208.66,92.6758 C 1208.66,100.871 1205.83,107.754 1197.2,107.754 C 1188.55,107.754 1185.71,100.871 1185.71,92.6758 C 1185.71,84.4922 1188.55,77.5977 1197.2,77.5977"
         style="fill:#231f20;fill-opacity:1;fill-rule:nonzero;stroke:none"
         id="path2964" />
      <path
         d="M 1249.07,99.5703 C 1248.7,104.395 1246.39,107.754 1241.2,107.754 C 1234.23,107.754 1231.55,101.711 1231.55,92.6758 C 1231.55,83.6523 1234.23,77.5977 1241.2,77.5977 C 1246.02,77.5977 1249.02,80.7422 1249.39,86.25 L 1256.65,86.25 C 1256.05,77.5977 1249.62,72.3242 1241.12,72.3242 C 1228.8,72.3242 1223.89,81.0469 1223.89,92.375 C 1223.89,103.625 1229.56,113.039 1241.73,113.039 C 1249.86,113.039 1255.97,107.91 1256.36,99.5703 L 1249.07,99.5703"
         style="fill:#231f20;fill-opacity:1;fill-rule:nonzero;stroke:none"
         id="path2966" />
      <path
         d="M 1266.06,73.4688 L 1266.06,128.73 L 1273.35,128.73 L 1273.35,106.758 L 1273.5,106.758 C 1276.25,111.047 1280.38,113.039 1285.97,113.039 C 1296,113.039 1299.13,106.379 1299.13,99.4922 L 1299.13,73.4688 L 1291.86,73.4688 L 1291.86,96.1992 C 1291.86,102.93 1290.11,107.297 1283.29,107.449 C 1280.38,107.52 1275.95,105.312 1274.56,102.09 C 1272.88,98.1133 1273.35,95.3516 1273.35,93.2148 L 1273.35,73.4688 L 1266.06,73.4688"
         style="fill:#231f20;fill-opacity:1;fill-rule:nonzero;stroke:none"
         id="path2968" />
      <path
         d="M 1323.94,113.039 C 1331.2,113.039 1339.39,109.973 1338.86,101.25 L 1331.2,101.25 C 1331.5,106.152 1327.77,107.754 1323.55,107.754 C 1319.64,107.754 1316.52,105.918 1316.52,101.641 C 1316.52,97.3438 1323.1,97.043 1325.85,96.1992 C 1332.36,94.0547 1339.86,93.293 1339.86,84.6484 C 1339.86,75.2266 1330.66,72.3242 1322.78,72.3242 C 1314.76,72.3242 1308.02,75.9961 1308.1,84.875 L 1315.74,84.875 C 1315.89,80.1289 1319.11,77.5977 1323.55,77.5977 C 1327.84,77.5977 1332.2,79.2891 1332.2,84.2578 C 1332.2,92.832 1308.86,86.4062 1308.86,101.406 C 1308.86,109.434 1316.96,113.039 1323.94,113.039"
         style="fill:#231f20;fill-opacity:1;fill-rule:nonzero;stroke:none"
         id="path2970" />
      <path
         d="M 1371.99,99.5703 C 1371.61,104.395 1369.32,107.754 1364.11,107.754 C 1357.14,107.754 1354.46,101.711 1354.46,92.6758 C 1354.46,83.6523 1357.14,77.5977 1364.11,77.5977 C 1368.94,77.5977 1371.91,80.7422 1372.3,86.25 L 1379.57,86.25 C 1378.96,77.5977 1372.53,72.3242 1364.03,72.3242 C 1351.71,72.3242 1346.82,81.0469 1346.82,92.375 C 1346.82,103.625 1352.47,113.039 1364.65,113.039 C 1372.77,113.039 1378.88,107.91 1379.27,99.5703 L 1371.99,99.5703"
         style="fill:#231f20;fill-opacity:1;fill-rule:nonzero;stroke:none"
         id="path2972" />
      <path
         d="M 1389.76,73.4688 L 1389.76,128.73 L 1397.02,128.73 L 1397.02,106.758 L 1397.18,106.758 C 1399.93,111.047 1404.06,113.039 1409.65,113.039 C 1419.68,113.039 1422.81,106.379 1422.81,99.4922 L 1422.81,73.4688 L 1415.54,73.4688 L 1415.54,96.1992 C 1415.54,102.93 1413.78,107.297 1406.97,107.449 C 1404.06,107.52 1399.62,105.312 1398.24,102.09 C 1396.56,98.1133 1397.02,95.3516 1397.02,93.2148 L 1397.02,73.4688 L 1389.76,73.4688"
         style="fill:#231f20;fill-opacity:1;fill-rule:nonzero;stroke:none"
         id="path2974" />
      <path
         d="M 1460.39,111.887 L 1467.67,111.887 L 1467.67,73.4688 L 1460.55,73.4688 L 1460.55,79.1328 L 1460.39,79.1328 C 1457.48,74.3086 1452.59,72.3242 1447.23,72.3242 C 1439.19,72.3242 1434.6,78.4375 1434.6,86.1719 L 1434.6,111.887 L 1441.86,111.887 L 1441.86,89.1602 C 1441.86,82.5 1443.41,77.5977 1450.36,77.5977 C 1453.35,77.5977 1457.41,79.1328 1458.94,83.1133 C 1460.31,86.7109 1460.39,91.2227 1460.39,92.1406 L 1460.39,111.887"
         style="fill:#231f20;fill-opacity:1;fill-rule:nonzero;stroke:none"
         id="path2976" />
      <path
         d="M 1479.6,73.4688 L 1486.8734,73.4688 L 1486.8734,128.7305 L 1479.6,128.7305 L 1479.6,73.4688 z"
         style="fill:#231f20;fill-opacity:1;fill-rule:nonzero;stroke:none"
         id="path2978" />
      <path
         d="M 1504.25,91.3008 C 1503.71,84.5703 1506.46,77.5977 1513.89,77.5977 C 1519.56,77.5977 1522.39,79.8242 1523.23,85.4102 L 1530.88,85.4102 C 1529.73,76.6797 1523,72.3242 1513.82,72.3242 C 1501.5,72.3242 1496.59,81.0469 1496.59,92.375 C 1496.59,103.625 1502.26,113.039 1514.43,113.039 C 1525.91,112.812 1531.34,105.539 1531.34,94.9023 L 1531.34,91.3008 L 1504.25,91.3008 z M 1523.68,96.3477 C 1523.84,102.781 1520.93,107.754 1513.89,107.754 C 1507.84,107.754 1504.25,102.629 1504.25,96.3477 L 1523.68,96.3477"
         style="fill:#231f20;fill-opacity:1;fill-rule:nonzero;stroke:none"
         id="path2980" />
      <path
         d="M 198.5,2.60547 L 208.19922,2.60547 L 208.19922,286.07447 L 198.5,286.07447 L 198.5,2.60547 z"
         style="fill:#231f20;fill-opacity:1;fill-rule:nonzero;stroke:none"
         id="path2982" />
      <path
         d="M 52.7305,191.836 C 57.3281,198.324 67.875,218.609 98.6953,218.609 C 120.414,218.609 131.957,209.957 136.547,205.629 C 149.801,192.645 150.609,173.988 150.609,163.453 L 150.609,73.4961 L 94.9062,73.4961 L 94.9062,152.562 C 94.9062,154.16 94.6523,172.641 75.9805,172.641 C 56.2344,172.641 55.707,154.504 55.707,149.652 L 55.707,73.4961 L 0.00390625,73.4961 L 0.00390625,215.098 L 52.7305,215.098 L 52.7305,191.836"
         style="fill:#231f20;fill-opacity:1;fill-rule:nonzero;stroke:none"
         id="path2984" />
      <path
         d="M 455.395,218.352 C 444.957,218.352 436.488,209.883 436.488,199.449 C 436.488,189.008 444.957,180.551 455.395,180.551 C 464.965,180.551 469.203,187.449 469.32,187.102 C 474.73,170.59 446.031,84.9609 406.801,84.9609 C 394.105,84.9609 390.172,95.2344 390.172,108.535 C 390.172,124.258 394.711,140.289 400.465,162.062 C 406.508,183.523 411.949,204.094 414.984,215.098 L 377.191,215.098 C 372.035,196.527 335.055,87.6758 303.695,87.6758 C 299.77,87.6758 295.531,91.9141 295.531,99.4727 C 295.531,103.691 299.156,118.516 300.98,123.965 L 313.363,166.293 C 316.078,175.066 320.016,186.543 320.016,195.016 C 320.016,209.828 309.742,218.301 297.652,218.301 C 263.48,218.301 249.273,187.766 242.301,175.367 L 248.062,171.734 C 251.383,177.172 266.5,202.871 276.781,202.871 C 278.297,202.871 279.508,201.062 279.508,195.621 C 279.508,191.992 277.398,183.832 275.27,176.273 L 262.27,133.34 C 260.152,125.469 255.004,110.352 255.004,99.4727 C 255.004,79.5117 270.133,69.5312 283.434,69.5312 C 331.918,69.5312 352.984,128.203 359.938,145.121 L 360.543,144.516 C 359.633,141.188 355.395,123.359 355.395,114.277 C 355.395,88.2812 367.008,69.5312 392.406,69.5312 C 466.031,69.5312 506.207,218.352 455.395,218.352"
         style="fill:#231f20;fill-opacity:1;fill-rule:nonzero;stroke:none"
         id="path2986" />
    </g>
    <text
       xml:space="preserve"
       style="font-size:6.19526577px;font-style:normal;font-weight:normal;fill:#000000;fill-opacity:1;stroke:none;font-family:Bitstream Vera Sans"
       x="85.136482"
       y="242.28491"
       id="text2988"
       inkscape:export-filename="/home/ronny/Dokumente/Lernstick/lernstick_fhnwkonform.png"
       inkscape:export-xdpi="422.09"
       inkscape:export-ydpi="422.09"><tspan
         sodipodi:role="line"
         id="tspan2990"
         x="85.136482"
         y="242.28491"
         style="font-size:7.74408245px;font-style:normal;font-variant:normal;font-weight:normal;font-stretch:normal;font-family:Arial;-inkscape-font-specification:Arial">Institut Weiterbildung und Beratung</tspan><tspan
         sodipodi:role="line"
         x="85.136482"
         y="251.96501"
         style="font-size:7.74408245px;font-style:normal;font-variant:normal;font-weight:normal;font-stretch:normal;font-family:Arial;-inkscape-font-specification:Arial"
         id="tspan3012" /><tspan
         sodipodi:role="line"
         x="85.136482"
         y="261.64511"
         style="font-size:7.74408245px;font-style:normal;font-variant:normal;font-weight:normal;font-stretch:normal;font-family:Arial;-inkscape-font-specification:Arial"
         id="tspan3010">imedias - Beratungsstelle fr digitale Medien</tspan><tspan
         sodipodi:role="line"
         x="85.136482"
         y="271.32523"
         style="font-size:7.74408245px;font-style:normal;font-variant:normal;font-weight:normal;font-stretch:normal;font-family:Arial;-inkscape-font-specification:Arial"
         id="tspan2554">in Schule und Unterricht</tspan><tspan
         sodipodi:role="line"
         x="85.136482"
         y="281.00531"
         style="font-size:7.74408245px;font-style:normal;font-variant:normal;font-weight:normal;font-stretch:normal;font-family:Arial;-inkscape-font-specification:Arial"
         id="tspan2996">www.imedias.ch/lernstick</tspan><tspan
         sodipodi:role="line"
         x="85.136482"
         y="290.68542"
         style="font-size:7.74408245px;font-style:normal;font-variant:normal;font-weight:normal;font-stretch:normal;font-family:Arial;-inkscape-font-specification:Arial"
         id="tspan2998" /><tspan
         sodipodi:role="line"
         x="85.136482"
         y="300.36554"
         style="font-size:7.74408245px;font-style:normal;font-variant:normal;font-weight:normal;font-stretch:normal;font-family:Arial;-inkscape-font-specification:Arial"
         id="tspan2553">Version: 2010.12</tspan></text>
  </g>
  <g
     inkscape:groupmode="layer"
     id="layer9" />
</svg>
